SplineFontDB: 3.2
FontName: InconsolataLGC-Bold
FullName: Inconsolata LGC Bold
FamilyName: Inconsolata LGC
Weight: Bold
Copyright: Original Roman version created by Raph Levien using his own tools and FontForge. Copyright 2006 Raph Levien. Hellenisation of the Roman font, by Dimosthenis Kaponis, using FontForge. Hellenic glyphs Copyright 2010-2012 Dimosthenis Kaponis. Released under the SIL Open Font License, http://scripts.sil.org/OFL.\n\nCyrillic glyphs added by MihailJP, using FontForge. Cyrillic glyphs Copyright 2012 MihailJP. Released under the SIL Open Font License, http://scripts.sil.org/OFL.\n\nEmboldened by MihailJP.\n\nSome glyphs modified by Greg Omelaenko, using FontForge.\n\nArabic glyphs are derived from public domain part of DejaVu Sans Mono.
UComments: "2005-8-26: Created.+AAoACgAA-Interpolate 0.45"
Version: 2.001
ItalicAngle: 0
UnderlinePosition: -101
UnderlineWidth: 50
Ascent: 840
Descent: 184
InvalidEm: 0
LayerCount: 2
Layer: 0 0 "Back" 1
Layer: 1 0 "Fore" 0
XUID: [1021 77 1780377399 11264577]
FSType: 0
OS2Version: 0
OS2_WeightWidthSlopeOnly: 0
OS2_UseTypoMetrics: 1
CreationTime: 1161020814
ModificationTime: 1775972724
PfmFamily: 49
TTFWeight: 700
TTFWidth: 5
LineGap: 0
VLineGap: 0
Panose: 2 11 8 9 3 0 3 0 0 0
OS2TypoAscent: 939
OS2TypoAOffset: 0
OS2TypoDescent: -198
OS2TypoDOffset: 0
OS2TypoLinegap: 0
OS2WinAscent: 1128
OS2WinAOffset: 0
OS2WinDescent: 283
OS2WinDOffset: 0
HheadAscent: 939
HheadAOffset: 0
HheadDescent: -198
HheadDOffset: 0
OS2CapHeight: 740
OS2XHeight: 543
OS2FamilyClass: 2048
OS2Vendor: 'PfEd'
Lookup: 1 0 0 "Urdu Arabic-Indic digits" { "Urdu Arabic-Indic digits-1" ("urdu") } ['locl' ('arab' <'URD ' > ) ]
Lookup: 1 0 0 "Sindhi forms" { "Sindhi forms-1"  } ['locl' ('arab' <'SND ' > ) ]
Lookup: 1 0 0 "Central Asian feh" { "Central Asian feh-1"  } ['locl' ('arab' <'KAZ ' 'KIR ' 'UYG ' > ) ]
Lookup: 1 0 0 "Kyrgyz forms" { "Kyrgyz forms-1"  } ['locl' ('arab' <'KIR ' > ) ]

StartChar: comma
Encoding: 44 44 0
Width: 613
Flags: MW
TeX: 101 0
LayerCount: 2
Fore
SplineSet
388 8 m 0
 388 -65 350 -103 248 -205 c 1
 183 -157 l 1
 217 -129 232 -116 252 -87 c 0
 258 -79 268 -64 268 -52 c 0
 268 -39 258 -33 247 -27 c 0
 237 -20 207 -2 207 39 c 0
 207 83 242 122 290 122 c 0
 342 122 388 76 388 8 c 0
EndSplineSet
EndChar

StartChar: semicolon
Encoding: 59 59 1
Width: 613
Flags: MW
TeX: 118 0
LayerCount: 2
Fore
SplineSet
379 418 m 0
 379 372 340 335 293 335 c 0
 246 335 208 372 208 418 c 0
 208 464 246 502 293 502 c 0
 340 502 379 464 379 418 c 0
EndSplineSet
Refer: 0 44 N 1 0 0 1 0 0 2
EndChar

StartChar: substitutetwo
Encoding: 9254 9254 2
Width: 613
Flags: MW
TeX: 116 0
LayerCount: 2
Fore
SplineSet
207 68 m 0
 207 114 246 152 293 152 c 0
 340 152 379 114 379 68 c 0
 379 22 340 -15 293 -15 c 0
 246 -15 207 22 207 68 c 0
72 565 m 0
 72 683 155 790 298 790 c 0
 376 790 480 756 547 648 c 1
 463 570 l 1
 426 644 356 681 306 681 c 0
 244 681 197 633 197 571 c 0
 197 502 252 458 290 416 c 0
 345 355 350 300 350 265 c 2
 350 242 l 1
 241 242 l 1
 241 265 l 2
 241 289 240 322 195 362 c 0
 158 395 72 445 72 565 c 0
EndSplineSet
EndChar

StartChar: uniFE80
Encoding: 65152 65152 3
Width: 613
Flags: W
AnchorPoint: "rtl-above" 325 578 basechar 0
AnchorPoint: "rtl-below" 320 -3 basechar 0
LayerCount: 2
Fore
SplineSet
222 30 m 1
 209 129 l 1
 226 131 252.015547038 136.955441463 275 145 c 0
 295 152 313 159 330 168 c 1
 288 176 259 193 241 218 c 0
 222 246 213 274 212 304 c 0
 213 327 216 353 223 381 c 0
 231 414 253 442 290 466 c 0
 321 485 355 495 392 495 c 0
 428 495 484 489 506 478 c 1
 474 381 l 1
 465 378 461 377 453 380 c 0
 432 387 438 393 436 394 c 0
 431 395 431 395 408 395 c 0
 388 395 371 391 358 382 c 0
 334 367 322 342 322 309 c 0
 322 270 351 244 410 230 c 0
 429 225 448.209092997 224.227652124 468 230 c 0
 492 237 497 240 505 244 c 1
 555 169 l 1
 525 142 453.172746433 108.560810299 385 82 c 0
 308 52 255 36 222 30 c 1
EndSplineSet
EndChar

StartChar: uniFE8D
Encoding: 65165 65165 16
Width: 613
Flags: W
AnchorPoint: "rtl-above" 305 850 basechar 0
AnchorPoint: "rtl-below" 305 -39 basechar 0
LayerCount: 2
Fore
SplineSet
364 738 m 2
 364 0 l 1
 248 0 l 1
 248 778 l 1
 364 778 l 1
 370 770 372 767 372 759 c 0
 372 737 364 740 364 738 c 2
EndSplineSet
EndChar

StartChar: uniFE8E
Encoding: 65166 65166 17
Width: 613
Flags: W
AnchorPoint: "rtl-above" 312 872 basechar 0
AnchorPoint: "rtl-below" 338 -80 basechar 0
LayerCount: 2
Fore
SplineSet
281 195 m 2
 281 778 l 1
 396 778 l 1
 396 201 l 2
 396 166 404 140 421 123 c 0
 436 108 473 101 533 101 c 2
 625 101 l 1
 625 0 l 1
 493 0 l 2
 407 0 352 15 325 46 c 0
 296 80 281 130 281 195 c 2
EndSplineSet
EndChar

StartChar: uniFEA1
Encoding: 65185 65185 36
Width: 613
Flags: W
AnchorPoint: "rtl-above" 235 563 basechar 0
AnchorPoint: "rtl-below" 280 -286 basechar 0
LayerCount: 2
Fore
SplineSet
78 325 m 0
 76 325 80 317 59 312 c 0
 51 310 48 312 39 316 c 1
 18 406 l 1
 86 427 213 444 278 444 c 0
 375 444 457 435 522 417 c 1
 522 331 l 1
 428 336 347 309 280 253 c 0
 206 190 169 117 169 30 c 0
 169 -20 185 -61 217 -93 c 0
 256 -135 315 -156 394 -156 c 0
 460 -156 508 -138 546 -123 c 1
 596 -200 l 1
 545 -233 479 -249 396 -250 c 0
 271 -251 181 -218 125 -153 c 0
 81 -102 59 -40 59 34 c 0
 59 119 88 197 149 268 c 0
 174 296 209 323 255 349 c 1
 231 351 198 348 157 342 c 0
 112 335 94 329 78 325 c 0
EndSplineSet
EndChar

StartChar: uniFEA2
Encoding: 65186 65186 37
Width: 613
Flags: W
AnchorPoint: "rtl-above" 226 592 basechar 0
AnchorPoint: "rtl-below" 251 -298 basechar 0
LayerCount: 2
Fore
SplineSet
614 101 m 2
 634 101 l 1
 634 0 l 1
 610 0 l 2
 562 0 516 23 473 69 c 0
 442 102 416 144 396 193 c 0
 389 211 379 245 364 298 c 1
 337 293 309 278 280 253 c 0
 206 189 169 114 169 30 c 0
 169 -22 185 -62 217 -93 c 0
 256 -135 315 -156 394 -156 c 0
 460 -156 506 -139 546 -123 c 1
 596 -200 l 1
 545 -233 479 -249 396 -250 c 0
 271 -251 181 -218 125 -153 c 0
 81 -102 59 -40 59 34 c 0
 59 119 88 197 149 268 c 0
 174 296 209 323 255 349 c 1
 231 351 198 348 157 342 c 0
 111 335 90 328 78 325 c 0
 76 325 80 317 59 312 c 0
 51 310 48 312 39 316 c 1
 18 406 l 1
 85 428 213 444 278 444 c 0
 375 444 457 435 522 417 c 1
 522 331 l 1
 492 331 471 330 459 327 c 1
 458 321 465 290 465 283 c 0
 474 236 494 195 524 159 c 0
 554 120 584 101 614 101 c 2
EndSplineSet
EndChar

StartChar: uniFEA3
Encoding: 65187 65187 38
Width: 613
Flags: W
AnchorPoint: "rtl-above" 152 578 basechar 0
AnchorPoint: "rtl-below" 162 -60 basechar 0
LayerCount: 2
Fore
SplineSet
421 270 m 1
 399 276 369 284 330 293 c 0
 306 299 262 303 198 310 c 0
 170 313 136 312 116 312 c 0
 114 312 117 304 95 303 c 0
 87 303 84 304 76 310 c 1
 70 415 l 1
 94 418 125 420 150 420 c 0
 205 420 261 414 317 402 c 0
 400 385 480 359 556 326 c 1
 556 229 l 1
 535 220 506 206 471 189 c 0
 432 167 395 143 360 113 c 0
 318 77 277 51 237 36 c 0
 173 12 111 0 52 0 c 2
 -12 0 l 1
 -12 101 l 1
 38 101 l 2
 98 101 154 114 208 139 c 0
 246 157 282 180 317 209 c 0
 344 230 378 251 421 270 c 1
EndSplineSet
EndChar

StartChar: uniFEA4
Encoding: 65188 65188 39
Width: 613
Flags: W
AnchorPoint: "rtl-above" 173 577 basechar 0
AnchorPoint: "rtl-below" 163 -74 basechar 0
LayerCount: 2
Fore
SplineSet
412 152 m 1
 395 140 378 127 360 113 c 0
 314 75 274 50 237 36 c 0
 173 12 112 0 52 0 c 2
 -12 0 l 1
 -12 101 l 1
 38 101 l 2
 98 101 154 114 208 139 c 0
 246 157 282 180 317 209 c 0
 344 230 378 251 421 270 c 1
 399 276 369 284 330 293 c 0
 306 299 262 303 198 310 c 0
 170 313 134 312 116 312 c 0
 114 312 117 304 95 303 c 0
 87 303 84 304 76 310 c 1
 70 415 l 1
 94 419 125 420 150 420 c 0
 204 420 260 414 317 402 c 0
 400 385 480 359 556 326 c 1
 556 229 l 1
 539 222 519 214 497 203 c 1
 510 183 522 167 532 155 c 0
 563 119 588 101 606 101 c 2
 636 101 l 1
 636 0 l 1
 596 0 l 2
 544 0 498 27 457 83 c 0
 441 106 426 129 412 152 c 1
EndSplineSet
EndChar

StartChar: uniFEA9
Encoding: 65193 65193 44
Width: 613
Flags: W
AnchorPoint: "rtl-above" 221 557 basechar 0
AnchorPoint: "rtl-below" 276 -67 basechar 0
LayerCount: 2
Fore
SplineSet
296 90 m 0
 355 107 389 133 400 170 c 0
 403 179 404 191 404 204 c 0
 404 235 395 267 374 302 c 0
 350 342 326 369 294 406 c 1
 361 477 l 1
 371 476 374 475 380 470 c 0
 396 455 389 451 390 450 c 0
 426 415 457 376 480 332 c 0
 507 281 520 237 520 202 c 0
 520 155 510 116 490 84 c 0
 461 30 402 -4 311 -16 c 0
 294 -19 270 -20 241 -19 c 0
 190 -19 148 -13 114 0 c 1
 114 106 l 1
 153 92 194 84 238 84 c 0
 265 85 285 87 296 90 c 0
EndSplineSet
EndChar

StartChar: uniFEAA
Encoding: 65194 65194 45
Width: 613
Flags: W
AnchorPoint: "rtl-above" 253 605 basechar 0
AnchorPoint: "rtl-below" 268 -82 basechar 0
LayerCount: 2
Fore
SplineSet
520 202 m 0
 520 180 525 143 558 117 c 0
 570 107 587 101 610 101 c 2
 624 101 l 1
 624 0 l 1
 583 0 l 2
 545 0 510 21 479 63 c 1
 448 21 392 -5 311 -16 c 0
 294 -19 270 -20 241 -19 c 0
 190 -19 148 -13 114 0 c 1
 114 106 l 1
 153 92 194 84 238 84 c 0
 265 85 285 87 296 90 c 0
 353 105 388 132 400 170 c 0
 403 179 404 191 404 204 c 0
 404 235 394 267 374 302 c 0
 351 341 331 364 287 414 c 1
 355 478 l 1
 408 443 456 375 480 332 c 0
 507 284 520 240 520 202 c 0
EndSplineSet
EndChar

StartChar: uniFEAD
Encoding: 65197 65197 48
Width: 613
Flags: W
AnchorPoint: "rtl-above" 247 430 basechar 0
AnchorPoint: "rtl-below" 278 -273 basechar 0
LayerCount: 2
Fore
SplineSet
441 77 m 0
 445 96 446 118 446 142 c 0
 446 184 438 225 420 270 c 1
 519 310 l 1
 528 305 531 302 534 295 c 0
 542 275 533 275 534 273 c 0
 551 234 559 192 559 148 c 0
 559 122 558 98 555 76 c 0
 542 -31 477 -116 358 -178 c 0
 270 -226 141 -250 -28 -252 c 1
 -28 -146 l 1
 121 -146 232 -125 304 -82 c 0
 385 -34 431 18 441 77 c 0
EndSplineSet
EndChar

StartChar: uniFEAE
Encoding: 65198 65198 49
Width: 613
Flags: W
AnchorPoint: "rtl-above" 171 451 basechar 0
AnchorPoint: "rtl-below" 211 -278 basechar 0
LayerCount: 2
Fore
SplineSet
373 254 m 1
 474 294 l 1
 484 266 494 226 496 213 c 0
 501 176 513 146 532 123 c 0
 544 108 565 101 594 101 c 2
 624 101 l 1
 624 0 l 1
 567 0 l 2
 527 0 500 7 488 22 c 1
 464 -56 403 -123 304 -176 c 0
 212 -226 83 -250 -82 -250 c 1
 -82 -144 l 1
 67 -144 178 -123 250 -80 c 0
 331 -32 377 21 387 79 c 0
 391 98 392 120 392 144 c 0
 392 186 386 210 373 254 c 1
EndSplineSet
EndChar

StartChar: uniFEB1
Encoding: 65201 65201 52
Width: 613
Flags: W
AnchorPoint: "rtl-above" 291 494 basechar 0
AnchorPoint: "rtl-below" 300 -231 basechar 0
LayerCount: 2
Fore
SplineSet
213 23 m 1
 211 -21 206 -63 196 -101 c 0
 185 -141 170 -174 150 -200 c 0
 126 -231 92 -246 50 -246 c 0
 13 -246 -24 -229 -57 -196 c 0
 -93 -160 -111 -106 -107 -32 c 0
 -103 43 -89 121 -66 165 c 1
 18 130 l 1
 0 67 -10 15 -8 -32 c 0
 -6 -81 1 -115 12 -132 c 0
 24 -148 37 -157 50 -156 c 0
 65 -156 79 -146 94 -124 c 0
 104 -109 113 -83 120 -47 c 0
 127 -11 130 35 129 90 c 0
 129 120 126 151 121 183 c 2
 100 300 l 1
 197 300 l 1
 207 222 l 2
 211 183 217 153 225 132 c 0
 237 107 249 95 262 94 c 0
 276 93 290 112 301 152 c 0
 310 182 314 231 314 300 c 1
 412 300 l 1
 411 239 416 186 428 140 c 0
 437 107 447 90 460 90 c 0
 486 90 500 136 500 228 c 2
 500 375 l 1
 599 375 l 1
 605 367 607 364 607 356 c 0
 607 334 599 337 599 335 c 2
 599 204 l 2
 599 140 588 87 567 43 c 0
 556 21 539 3 515 -6 c 0
 500 -12 481 -14 457 -14 c 0
 434 -14 416 -8 405 4 c 0
 384 27 370 54 363 86 c 1
 357 59 344 36 325 15 c 0
 310 -1 288 -9 258 -9 c 0
 242 -9 226 1 213 23 c 1
EndSplineSet
Substitution2: "Forms before tail fragment-1" uniFEB1.alt
EndChar

StartChar: uniFEB2
Encoding: 65202 65202 53
Width: 613
Flags: W
AnchorPoint: "rtl-above" 228 476 basechar 0
AnchorPoint: "rtl-below" 186 -254 basechar 0
LayerCount: 2
Fore
SplineSet
421 -14 m 24
 398 -14 381 -8 369 4 c 0
 348 27 334 54 327 86 c 1
 321 59 308 36 289 15 c 0
 274 -1 251 -9 221 -9 c 0
 205 -9 190 1 177 23 c 1
 175 -21 170 -63 160 -101 c 0
 149 -141 134 -174 113 -200 c 0
 89 -231 55 -246 13 -246 c 0
 -24 -246 -60 -229 -93 -196 c 0
 -129 -160 -147 -106 -143 -32 c 0
 -139 43 -126 119 -101 165 c 1
 -19 131 l 1
 -36 71 -47 15 -45 -32 c 0
 -43 -81 -35 -115 -24 -132 c 0
 -13 -148 -1 -157 13 -156 c 0
 26 -156 42 -146 58 -124 c 0
 69 -109 78 -83 84 -47 c 0
 91 -11 94 35 94 90 c 0
 94 120 91 151 85 183 c 2
 84 183 71 257 64 300 c 1
 64 300 125 300 161 300 c 1
 170 222 l 2
 174 183 181 153 189 132 c 0
 201 107 213 95 226 94 c 0
 241 93 253 112 264 152 c 0
 273 182 278 231 278 300 c 1
 375 300 l 1
 374 239 380 186 392 140 c 0
 401 107 411 90 424 90 c 0
 450 90 463 136 463 228 c 2
 463 375 l 1
 562 375 l 1
 562 375 562 281 562 213 c 2
 562 162 570 130 584 117 c 0
 594 106 606 101 621 101 c 2
 625 101 l 1
 625 0 l 1
 594 0 l 2
 568 0 546 15 528 43 c 1
 517 18 502 1 481 -6 c 0
 464 -12 444 -14 421 -14 c 24
EndSplineSet
Substitution2: "Forms before tail fragment-1" uniFEB2.alt
EndChar

StartChar: uniFEB3
Encoding: 65203 65203 54
Width: 613
Flags: W
AnchorPoint: "rtl-above" 267 492 basechar 0
AnchorPoint: "rtl-below" 165 -74 basechar 0
LayerCount: 2
Fore
SplineSet
256 94 m 0
 274 94 290 112 300 150 c 0
 309 180 313 228 313 298 c 1
 410 298 l 1
 409 237 415 184 427 138 c 0
 436 105 446 88 459 88 c 0
 485 88 498 134 498 226 c 2
 498 373 l 1
 598 373 l 1
 604 365 606 362 606 354 c 0
 606 332 598 335 598 333 c 2
 598 202 l 2
 598 138 587 85 566 41 c 0
 555 18 538 2 514 -7 c 0
 499 -13 480 -16 456 -16 c 0
 433 -16 415 -11 404 2 c 0
 383 25 369 53 362 85 c 1
 356 58 343 34 324 13 c 0
 309 -3 286 -11 256 -11 c 0
 228 -11 204 -1 182 16 c 0
 162 32 152 50 148 68 c 1
 142 50 127 33 103 18 c 0
 83 6 56 0 23 0 c 2
 -12 0 l 1
 -12 101 l 1
 9 101 l 2
 32 101 50 107 62 119 c 0
 85 143 97 171 97 204 c 2
 97 300 l 1
 196 300 l 1
 196 222 l 2
 196 194 200 165 208 136 c 0
 215 108 231 94 256 94 c 0
EndSplineSet
EndChar

StartChar: uniFEB4
Encoding: 65204 65204 55
Width: 613
Flags: W
AnchorPoint: "rtl-above" 235 481 basechar 0
AnchorPoint: "rtl-below" 151 -76 basechar 0
LayerCount: 2
Fore
SplineSet
371 298 m 1
 371 237 376 183 387 138 c 0
 395 105 406 88 421 88 c 0
 446 88 460 134 460 226 c 2
 460 373 l 1
 559 373 l 1
 559 373 559 279 559 211 c 2
 559 160 566 129 580 116 c 0
 590 105 601 99 611 99 c 2
 625 99 l 1
 625 -2 l 1
 590 -2 l 2
 564 -2 543 13 525 41 c 1
 510 17 494 1 475 -7 c 0
 460 -13 441 -16 418 -16 c 0
 392 -16 371 -6 354 15 c 0
 337 35 326 59 322 85 c 1
 316 58 303 34 284 13 c 0
 269 -3 248 -11 222 -11 c 0
 191 -11 169 -2 156 14 c 0
 138 34 126 52 120 68 c 1
 111 46 98 29 82 18 c 0
 65 6 44 0 19 0 c 2
 -12 0 l 1
 -12 101 l 1
 6 101 l 2
 21 101 33 107 43 119 c 0
 60 138 70 166 70 204 c 2
 70 300 l 1
 168 300 l 1
 168 222 l 2
 168 194 172 165 180 136 c 0
 187 108 201 94 222 94 c 16
 237 94 249 112 260 150 c 0
 269 180 273 228 273 298 c 1
 371 298 l 1
EndSplineSet
EndChar

StartChar: uniFEB9
Encoding: 65209 65209 60
Width: 613
Flags: W
AnchorPoint: "rtl-above" 174 474 basechar 0
AnchorPoint: "rtl-below" 355 -189 basechar 0
LayerCount: 2
Fore
SplineSet
296 101 m 1
 360 101 l 2
 400 101 429 107 447 118 c 0
 476 137 490 156 490 174 c 0
 490 187 484 199 474 211 c 0
 464 221 449 226 430 226 c 0
 406 226 380 210 351 178 c 0
 329 153 310 127 296 101 c 1
214 161 m 1
 238 198 260 227 278 248 c 0
 324 302 372 327 424 327 c 0
 487 327 533 311 562 281 c 0
 591 250 606 215 606 178 c 0
 606 114 576 65 518 31 c 0
 483 11 440 0 387 0 c 2
 278 0 l 2
 266 0 251 5 233 15 c 0
 218 24 211 31 211 36 c 1
 211 -9 204 -54 191 -99 c 0
 180 -139 160 -174 135 -202 c 0
 106 -232 73 -246 37 -246 c 0
 -6 -246 -45 -230 -76 -199 c 0
 -113 -161 -132 -106 -132 -34 c 0
 -132 33 -116 111 -83 164 c 1
 -2 124 l 1
 -22 65 -33 17 -33 -34 c 0
 -33 -78 -23 -111 -7 -129 c 0
 6 -142 20 -148 36 -147 c 0
 54 -146 69 -136 81 -117 c 0
 97 -93 107 -61 110 -22 c 0
 115 18 115 54 111 86 c 0
 103 139 97 179 92 206 c 1
 188 247 l 1
 188 244 190 216 193 206 c 1
 197 193 205 178 214 161 c 1
EndSplineSet
Substitution2: "Forms before tail fragment-1" uniFEB9.alt
EndChar

StartChar: uniFEBA
Encoding: 65210 65210 61
Width: 613
Flags: W
AnchorPoint: "rtl-above" 126 425 basechar 0
AnchorPoint: "rtl-below" 251 -165 basechar 0
LayerCount: 2
Fore
SplineSet
263 101 m 1
 328 101 l 2
 368 101 396 107 414 118 c 0
 443 137 457 156 457 174 c 0
 457 187 451 199 441 211 c 0
 431 221 417 226 398 226 c 0
 375 226 349 210 319 178 c 0
 297 153 278 127 263 101 c 1
573 178 m 0
 573 163 570 147 563 132 c 1
 568 127 573 123 578 118 c 0
 590 107 601 101 608 101 c 2
 626 101 l 1
 626 0 l 1
 598 0 l 2
 581 0 557 12 527 38 c 2
 512 51 l 1
 467 14 404 0 354 0 c 2
 246 0 l 2
 233 0 217 5 200 15 c 0
 185 24 178 31 178 36 c 1
 178 -9 171 -54 158 -99 c 0
 146 -139 128 -174 103 -202 c 0
 73 -232 40 -246 4 -246 c 0
 -39 -246 -77 -230 -108 -199 c 0
 -146 -162 -165 -107 -165 -34 c 0
 -165 33 -150 110 -114 163 c 1
 -35 123 l 1
 -54 70 -65 17 -65 -34 c 0
 -65 -78 -55 -111 -39 -129 c 0
 -27 -142 -13 -148 3 -147 c 0
 21 -146 36 -136 49 -117 c 0
 70 -86 82 -28 82 17 c 0
 82 44 81 66 78 86 c 0
 68 154 62 197 57 225 c 1
 157 225 l 1
 158 220 159 212 162 200 c 0
 166 188 173 176 181 161 c 1
 205 198 227 227 245 248 c 0
 292 302 341 327 392 327 c 0
 455 327 501 311 530 281 c 0
 559 249 573 214 573 178 c 0
EndSplineSet
Substitution2: "Forms before tail fragment-1" uniFEBA.alt
EndChar

StartChar: uniFEBB
Encoding: 65211 65211 62
Width: 613
Flags: W
AnchorPoint: "rtl-above" 209 459 basechar 0
AnchorPoint: "rtl-below" 172 -66 basechar 0
LayerCount: 2
Fore
SplineSet
296 101 m 1
 361 101 l 2
 401 101 429 107 447 118 c 0
 476 137 490 156 490 174 c 0
 490 187 484 199 474 211 c 0
 464 221 450 226 431 226 c 0
 408 226 382 210 352 178 c 0
 330 153 311 127 296 101 c 1
279 0 m 2
 239 0 209 5 188 15 c 0
 167 25 150 38 137 54 c 1
 107 16 69 0 36 0 c 2
 -15 0 l 1
 -15 101 l 1
 16 101 l 2
 30 101 44 108 56 122 c 0
 75 144 84 171 84 204 c 2
 84 261 l 1
 84 261 152 261 188 261 c 1
 188 222 l 2
 188 193 196 173 210 158 c 1
 235 196 258 226 278 248 c 0
 327 302 376 327 425 327 c 0
 488 327 534 311 563 281 c 0
 592 250 606 215 606 178 c 0
 606 114 576 65 518 31 c 0
 484 11 441 0 388 0 c 2
 279 0 l 2
EndSplineSet
EndChar

StartChar: uniFEBC
Encoding: 65212 65212 63
Width: 613
Flags: W
AnchorPoint: "rtl-above" 174 462 basechar 0
AnchorPoint: "rtl-below" 160 -69 basechar 0
LayerCount: 2
Fore
SplineSet
267 101 m 1
 332 101 l 2
 372 101 401 107 418 118 c 0
 447 137 461 156 461 174 c 0
 461 187 455 199 444 211 c 0
 434 221 420 226 401 226 c 0
 378 226 353 210 323 178 c 0
 301 153 282 127 267 101 c 1
250 0 m 2
 212 0 182 5 159 15 c 0
 135 25 118 37 108 51 c 1
 80 14 51 0 23 0 c 2
 -15 0 l 1
 -15 101 l 1
 2 101 l 2
 14 101 26 108 36 122 c 0
 48 139 55 166 55 204 c 2
 55 261 l 1
 159 261 l 1
 159 222 l 2
 159 195 165 174 181 158 c 1
 205 196 228 226 249 248 c 0
 298 302 347 327 396 327 c 0
 458 327 504 311 533 281 c 0
 562 250 577 215 577 178 c 0
 577 163 573 147 567 132 c 1
 572 126 576 122 581 118 c 0
 592 107 602 101 608 101 c 2
 607 101 620 101 627 101 c 1
 627 0 l 1
 600 0 l 2
 580 0 556 13 530 38 c 2
 516 51 l 1
 468 15 416 0 359 0 c 2
 250 0 l 2
EndSplineSet
EndChar

StartChar: uniFEC1
Encoding: 65217 65217 68
Width: 613
Flags: W
AnchorPoint: "rtl-above" 130 863 basechar 0
AnchorPoint: "rtl-below" 178 -63 basechar 0
LayerCount: 2
Fore
SplineSet
378 0 m 2
 114 0 l 1
 3 0 l 1
 3 101 l 1
 114 101 l 1
 114 778 l 1
 230 778 l 1
 236 770 238 767 238 759 c 0
 238 737 230 740 230 738 c 2
 230 190 l 1
 252 224 272 249 289 266 c 0
 329 308 371 330 415 330 c 0
 475 330 521 314 552 283 c 0
 581 255 596 221 596 181 c 0
 596 122 565 74 504 38 c 0
 463 13 421 0 378 0 c 2
286 101 m 1
 350 101 l 2
 388 101 417 108 437 121 c 0
 465 140 479 160 479 179 c 0
 479 192 474 203 464 215 c 0
 454 225 439 231 420 231 c 0
 396 231 369 214 341 180 c 0
 316 150 298 123 286 101 c 1
EndSplineSet
EndChar

StartChar: uniFEC2
Encoding: 65218 65218 69
Width: 613
Flags: W
AnchorPoint: "rtl-above" 90 874 basechar 0
AnchorPoint: "rtl-below" 129 -67 basechar 0
LayerCount: 2
Fore
SplineSet
571 181 m 0
 571 163 567 145 558 130 c 1
 574 110 588 101 602 101 c 2
 624 101 l 1
 624 0 l 1
 585 0 l 2
 557 0 530 13 504 40 c 2
 492 51 l 1
 452 17 406 0 353 0 c 2
 89 0 l 1
 4 0 l 1
 4 101 l 1
 89 101 l 1
 89 778 l 1
 206 778 l 1
 212 770 214 767 214 759 c 0
 214 737 206 740 206 738 c 2
 206 190 l 1
 228 224 248 249 265 266 c 0
 305 308 348 330 391 330 c 0
 450 330 495 314 527 283 c 0
 556 255 571 221 571 181 c 0
262 101 m 1
 326 101 l 2
 364 101 392 108 412 121 c 0
 440 140 455 160 455 179 c 0
 455 192 450 203 440 215 c 0
 430 225 415 231 396 231 c 0
 372 231 345 214 317 180 c 0
 292 150 274 123 262 101 c 1
EndSplineSet
EndChar

StartChar: uniFEC3
Encoding: 65219 65219 70
Width: 613
Flags: W
AnchorPoint: "rtl-above" 112 883 basechar 0
AnchorPoint: "rtl-below" 143 -68 basechar 0
LayerCount: 2
Fore
SplineSet
378 0 m 2
 114 0 l 1
 -18 0 l 1
 -18 101 l 1
 114 101 l 1
 114 778 l 1
 230 778 l 1
 236 770 238 767 238 759 c 0
 238 737 230 740 230 738 c 2
 230 190 l 1
 252 224 272 249 289 266 c 0
 329 308 371 330 415 330 c 0
 475 330 521 314 552 283 c 0
 581 255 596 221 596 181 c 0
 596 122 565 74 504 38 c 0
 463 13 421 0 378 0 c 2
286 101 m 1
 350 101 l 2
 388 101 417 108 437 121 c 0
 465 140 479 160 479 179 c 0
 479 192 474 203 464 215 c 0
 454 225 439 231 420 231 c 0
 396 231 369 214 341 180 c 0
 316 150 298 123 286 101 c 1
EndSplineSet
EndChar

StartChar: uniFEC4
Encoding: 65220 65220 71
Width: 613
Flags: W
AnchorPoint: "rtl-above" 88 883 basechar 0
AnchorPoint: "rtl-below" 126 -67 basechar 0
LayerCount: 2
Fore
SplineSet
571 181 m 0
 571 161 567 145 558 130 c 1
 574 110 588 101 602 101 c 2
 624 101 l 1
 624 0 l 1
 585 0 l 2
 557 0 530 13 504 40 c 2
 492 51 l 1
 452 17 406 0 353 0 c 2
 89 0 l 1
 -16 0 l 1
 -16 101 l 1
 89 101 l 1
 89 778 l 1
 206 778 l 1
 212 770 214 767 214 759 c 0
 214 737 206 740 206 738 c 2
 206 190 l 1
 228 224 248 249 265 266 c 0
 305 308 348 330 391 330 c 0
 452 330 497 314 527 283 c 0
 556 254 571 220 571 181 c 0
262 101 m 1
 326 101 l 2
 364 101 392 108 412 121 c 0
 440 140 455 160 455 179 c 0
 455 192 450 203 440 215 c 0
 430 225 415 231 396 231 c 0
 372 231 345 214 317 180 c 0
 292 150 274 123 262 101 c 1
EndSplineSet
EndChar

StartChar: uniFEC9
Encoding: 65225 65225 76
Width: 613
Flags: W
AnchorPoint: "rtl-above" 210 656 basechar 0
AnchorPoint: "rtl-below" 301 -286 basechar 0
LayerCount: 2
Fore
SplineSet
181 -73 m 0
 222 -127 290 -154 384 -154 c 0
 459 -154 513 -135 548 -120 c 1
 602 -200 l 1
 553 -233 480 -250 386 -250 c 0
 249 -250 153 -219 97 -156 c 0
 64 -119 48 -67 48 0 c 0
 47 64 62 112 91 146 c 0
 111 170 156 216 171 220 c 1
 156 221 140 230 122 246 c 0
 97 267 84 296 84 333 c 0
 84 396 113 446 170 484 c 0
 224 522 299 542 394 546 c 1
 394 451 l 1
 386 445 383 443 375 443 c 0
 353 443 356 451 354 451 c 0
 315 442 277 434 239 410 c 0
 212 393 197 370 197 343 c 0
 197 318 204 303 217 296 c 0
 231 288 246 284 262 284 c 0
 276 284 289 288 302 294 c 0
 352 317 410 330 498 340 c 1
 508 240 l 1
 414 231 330 202 254 153 c 0
 192 113 161 61 161 -2 c 0
 161 -32 168 -56 181 -73 c 0
EndSplineSet
EndChar

StartChar: uniFECA
Encoding: 65226 65226 77
Width: 613
Flags: W
AnchorPoint: "rtl-above" 232 530 basechar 0
AnchorPoint: "rtl-below" 215 -277 basechar 0
LayerCount: 2
Fore
SplineSet
58 0 m 0
 58 78 108 133 162 172 c 1
 145 185 128 203 113 227 c 0
 99 249 92 265 92 279 c 0
 93 291 95 305 100 321 c 0
 106 340 127 358 163 375 c 0
 193 390 230 397 272 397 c 0
 318 397 356 390 385 375 c 0
 418 358 438 340 445 322 c 0
 449 309 451 295 451 279 c 0
 451 260 440 241 417 220 c 0
 388 195 360 175 334 162 c 1
 358 142 383 127 409 117 c 0
 436 107 473 101 520 101 c 2
 632 101 l 1
 632 0 l 1
 528 0 l 2
 417 0 322 35 240 105 c 1
 195 70 171 34 171 -2 c 0
 171 -33 178 -60 193 -81 c 0
 225 -128 299 -152 412 -152 c 0
 476 -152 529 -133 562 -119 c 1
 614 -200 l 1
 563 -233 497 -249 414 -250 c 0
 266 -251 166 -219 112 -154 c 0
 75 -110 58 -59 58 0 c 0
271 294 m 0
 263 294 255 293 248 291 c 0
 233 287 226 280 226 271 c 0
 226 260 236 246 257 225 c 1
 298 244 317 258 318 273 c 0
 319 281 312 287 296 291 c 0
 288 293 279 294 271 294 c 0
EndSplineSet
EndChar

StartChar: uniFECB
Encoding: 65227 65227 78
Width: 613
Flags: W
AnchorPoint: "rtl-above" 222 677 basechar 0
AnchorPoint: "rtl-below" 209 -50 basechar 0
LayerCount: 2
Fore
SplineSet
28 101 m 2
 80 101 139 115 203 145 c 1
 180 151 157 166 135 188 c 0
 102 221 86 262 86 309 c 0
 86 398 121 462 193 501 c 0
 239 526 306 540 392 544 c 1
 392 444 l 1
 384 438 381 436 373 436 c 0
 351 436 354 444 352 444 c 0
 337 442 270 428 236 405 c 0
 208 386 194 359 194 325 c 0
 194 290 207 261 232 240 c 0
 256 220 283 210 315 210 c 0
 333 210 355 216 379 226 c 2
 485 272 l 1
 528 181 l 1
 296 73 l 2
 192 24 104 0 32 0 c 2
 -12 0 l 1
 -12 101 l 1
 28 101 l 2
EndSplineSet
EndChar

StartChar: uniFECC
Encoding: 65228 65228 79
Width: 613
Flags: W
AnchorPoint: "rtl-above" 306 578 basechar 0
AnchorPoint: "rtl-below" 301 -53 basechar 0
LayerCount: 2
Fore
SplineSet
306 80 m 1
 246 27 190 0 137 0 c 2
 -12 0 l 1
 -12 101 l 1
 97 101 l 2
 130 101 158 108 180 119 c 0
 197 128 211 139 224 150 c 1
 193 178 167 207 144 237 c 0
 134 250 129 264 129 279 c 0
 129 296 132 311 140 325 c 0
 149 343 170 360 202 375 c 0
 234 390 269 397 306 397 c 0
 344 397 378 390 410 375 c 0
 443 359 464 343 472 326 c 0
 480 311 483 296 483 279 c 0
 483 263 478 249 468 237 c 0
 442 205 415 176 387 151 c 1
 398 140 413 130 432 119 c 0
 453 108 481 102 515 101 c 2
 514 101 551 101 624 101 c 1
 624 0 l 1
 475 0 l 2
 422 0 366 27 306 80 c 1
306 294 m 0
 295 294 286 292 278 290 c 0
 266 286 259 280 259 271 c 0
 259 264 275 245 306 216 c 1
 337 245 353 264 353 271 c 0
 353 281 346 286 334 290 c 0
 325 292 316 294 306 294 c 0
EndSplineSet
EndChar

StartChar: uniFED9
Encoding: 65241 65241 92
Width: 613
Flags: W
AnchorPoint: "rtl-above" 244 756 basechar 0
AnchorPoint: "rtl-below" 256 -86 basechar 0
LayerCount: 2
Fore
SplineSet
458 140 m 0
 475 162 484 217 484 306 c 2
 484 778 l 1
 597 778 l 1
 603 770 605 767 605 759 c 0
 605 737 597 740 597 738 c 2
 597 306 l 2
 597 180 582 102 553 71 c 0
 510 26 477 -1 455 -9 c 0
 403 -27 344 -37 278 -37 c 0
 220 -38 164 -28 110 -9 c 0
 38 16 2 63 2 130 c 0
 2 155 5 191 17 208 c 1
 119 178 l 1
 117 170 115 157 115 143 c 0
 116 114 140 92 188 76 c 0
 220 65 250 60 276 60 c 0
 320 60 354 67 377 80 c 0
 411 97 438 117 458 140 c 0
316 559 m 1
 316 509 l 1
 291 508 272 505 260 500 c 0
 235 490 222 479 222 468 c 0
 222 461 226 454 232 448 c 0
 236 443 248 439 267 436 c 0
 308 431 328 411 328 375 c 0
 328 338 312 311 280 296 c 0
 252 283 224 277 194 277 c 0
 171 277 151 279 132 282 c 1
 132 335 l 1
 155 332 174 330 189 330 c 0
 211 330 230 334 248 343 c 0
 264 350 272 358 272 368 c 0
 272 380 261 388 239 392 c 0
 212 397 194 406 186 416 c 0
 171 433 163 450 164 469 c 0
 165 499 179 521 207 535 c 0
 235 549 271 557 316 559 c 1
EndSplineSet
EndChar

StartChar: uniFEDA
Encoding: 65242 65242 93
Width: 613
Flags: W
AnchorPoint: "rtl-above" 226 772 basechar 0
AnchorPoint: "rtl-below" 225 -89 basechar 0
LayerCount: 2
Fore
SplineSet
263 559 m 1
 263 509 l 1
 237 508 219 505 207 500 c 0
 182 490 169 479 169 468 c 0
 169 461 173 454 180 448 c 0
 184 443 196 439 215 436 c 0
 255 431 275 411 275 375 c 0
 275 338 259 311 227 296 c 0
 199 283 170 277 141 277 c 0
 119 277 99 279 80 282 c 1
 80 335 l 1
 103 332 122 330 137 330 c 0
 158 330 177 334 195 343 c 0
 211 350 219 358 219 368 c 0
 219 380 209 388 187 392 c 0
 160 397 142 406 133 416 c 0
 119 433 112 450 112 469 c 0
 113 499 126 521 154 535 c 0
 182 549 218 557 263 559 c 1
539 778 m 1
 539 192 l 2
 539 163 547 140 563 123 c 0
 578 108 588 101 595 101 c 2
 594 101 614 101 628 101 c 1
 628 0 l 1
 568 0 l 2
 540 0 509 18 477 53 c 1
 449 26 420 5 392 -9 c 0
 353 -26 299 -36 226 -37 c 0
 168 -38 112 -28 58 -9 c 0
 -15 16 -51 63 -51 130 c 0
 -51 155 -47 191 -37 208 c 1
 66 178 l 1
 64 163 63 157 63 143 c 0
 63 114 87 92 135 76 c 0
 167 65 197 60 223 60 c 0
 265 60 302 68 332 83 c 0
 359 97 381 116 399 140 c 0
 416 164 425 219 425 306 c 2
 425 778 l 1
 539 778 l 1
EndSplineSet
EndChar

StartChar: uniFEDB
Encoding: 65243 65243 94
Width: 613
Flags: W
AnchorPoint: "rtl-above" 206 767 basechar 0
AnchorPoint: "rtl-below" 138 -68 basechar 0
LayerCount: 2
Fore
SplineSet
199 0 m 2
 -12 0 l 1
 -12 101 l 1
 189 101 l 2
 239 101 272 117 286 150 c 0
 291 162 294 174 294 186 c 0
 294 204 285 225 266 248 c 2
 124 423 l 2
 98 455 84 484 84 509 c 0
 84 518 85 530 89 543 c 0
 99 581 123 608 159 623 c 0
 159 623 262 666 510 769 c 1
 553 678 l 1
 548 669 546 666 539 663 c 0
 519 654 519 662 517 661 c 2
 254 552 l 2
 230 542 216 532 210 520 c 0
 208 516 207 511 207 505 c 0
 207 494 216 478 233 458 c 2
 359 308 l 2
 393 267 410 226 410 184 c 0
 410 147 400 111 379 78 c 0
 348 26 287 0 199 0 c 2
EndSplineSet
EndChar

StartChar: uniFEDC
Encoding: 65244 65244 95
Width: 613
Flags: W
AnchorPoint: "rtl-above" 212 777 basechar 0
AnchorPoint: "rtl-below" 128 -74 basechar 0
LayerCount: 2
Fore
SplineSet
206 0 m 2
 -14 0 l 1
 -14 101 l 1
 196 101 l 2
 246 101 278 117 292 150 c 0
 297 162 300 174 300 186 c 0
 300 204 292 225 274 248 c 2
 130 423 l 2
 104 455 91 484 91 509 c 0
 91 518 93 530 96 543 c 0
 106 581 129 607 166 623 c 2
 516 769 l 1
 559 678 l 1
 554 669 552 666 545 663 c 0
 525 654 525 662 523 661 c 2
 261 552 l 2
 238 542 222 532 216 520 c 0
 214 516 214 511 214 505 c 0
 214 494 223 478 240 458 c 2
 512 129 l 2
 519 120 529 114 542 109 c 0
 557 104 574 101 594 101 c 2
 629 101 l 1
 629 0 l 1
 574 0 l 2
 550 0 527 3 507 9 c 0
 472 20 448 34 434 50 c 2
 392 100 l 1
 388 92 379 77 376 72 c 0
 345 24 289 0 206 0 c 2
EndSplineSet
EndChar

StartChar: uniFEDD
Encoding: 65245 65245 96
Width: 613
Flags: W
AnchorPoint: "rtl-above" 378 828 basechar 0
AnchorPoint: "rtl-below" 251 -202 basechar 0
LayerCount: 2
Fore
SplineSet
431 36 m 0
 442 62 447 121 447 213 c 2
 447 778 l 1
 562 778 l 1
 568 770 570 767 570 759 c 0
 570 737 562 740 562 738 c 2
 562 210 l 2
 562 98 553 24 536 -17 c 0
 509 -72 475 -110 434 -133 c 0
 388 -157 333 -169 269 -169 c 0
 213 -169 166 -160 128 -141 c 0
 54 -105 17 -45 17 38 c 0
 17 83 28 141 55 172 c 1
 149 126 l 1
 139 99 131 75 131 38 c 0
 131 0 154 -30 199 -50 c 0
 219 -60 242 -64 269 -64 c 0
 304 -64 334 -58 360 -45 c 0
 390 -30 414 -3 431 36 c 0
EndSplineSet
EndChar

StartChar: uniFEDE
Encoding: 65246 65246 97
Width: 613
Flags: W
AnchorPoint: "rtl-above" 209 776 basechar 0
AnchorPoint: "rtl-below" 253 -219 basechar 0
LayerCount: 2
Fore
SplineSet
529 778 m 1
 529 192 l 2
 530 162 539 138 555 123 c 0
 572 108 586 101 598 101 c 2
 597 101 615 101 629 101 c 1
 629 0 l 1
 629 0 587 0 571 0 c 2
 549 0 528 9 507 27 c 1
 502 -5 493 -31 479 -53 c 0
 452 -94 418 -123 376 -143 c 0
 341 -160 294 -169 237 -169 c 0
 181 -169 133 -160 95 -141 c 0
 20 -104 -14 -44 -16 38 c 0
 -17 83 -7 140 24 171 c 1
 116 126 l 1
 107 102 99 75 99 38 c 0
 99 0 121 -30 166 -50 c 0
 186 -60 210 -64 237 -64 c 0
 272 -64 302 -58 328 -45 c 0
 358 -30 382 -3 399 36 c 0
 409 62 414 121 414 213 c 2
 414 778 l 1
 529 778 l 1
EndSplineSet
EndChar

StartChar: uniFEDF
Encoding: 65247 65247 98
Width: 613
Flags: W
AnchorPoint: "rtl-above" 246 799 basechar 0
AnchorPoint: "rtl-below" 284 -63 basechar 0
LayerCount: 2
Fore
SplineSet
509 195 m 2
 509 130 495 80 466 46 c 0
 439 15 377 0 279 0 c 2
 -12 0 l 1
 -12 101 l 1
 239 101 l 2
 312 101 355 108 370 123 c 0
 386 139 394 165 394 201 c 2
 394 778 l 1
 509 778 l 1
 515 770 517 767 517 759 c 0
 517 737 509 740 509 738 c 2
 509 195 l 2
EndSplineSet
EndChar

StartChar: uniFEE0
Encoding: 65248 65248 99
Width: 613
Flags: W
AnchorPoint: "rtl-above" 273 858 basechar 0
AnchorPoint: "rtl-below" 304 -71 basechar 0
LayerCount: 2
Fore
SplineSet
304 40 m 1
 281 13 227 0 143 0 c 2
 -12 0 l 1
 -12 101 l 1
 104 101 l 2
 168 101 207 108 222 123 c 0
 238 139 246 165 246 201 c 2
 246 778 l 1
 362 778 l 1
 362 201 l 2
 362 166 369 140 386 123 c 0
 401 108 440 101 505 101 c 2
 624 101 l 1
 624 0 l 1
 466 0 l 2
 383 0 329 13 304 40 c 1
EndSplineSet
EndChar

StartChar: uniFEE1
Encoding: 65249 65249 100
Width: 613
Flags: W
AnchorPoint: "rtl-above" 305 497 basechar 0
AnchorPoint: "rtl-below" 346 -78 basechar 0
LayerCount: 2
Fore
SplineSet
310 148 m 1
 333 140 375 130 389 130 c 0
 404 130 416 133 422 141 c 0
 437 160 444 176 444 190 c 0
 444 200 443 207 441 212 c 0
 437 232 428 245 412 252 c 0
 400 258 385 262 370 262 c 0
 351 262 338 256 330 245 c 0
 313 224 305 206 305 189 c 0
 305 180 307 165 310 148 c 1
238 64 m 0
 216 75 196 70 178 52 c 0
 170 43 166 26 165 0 c 2
 165 -246 l 1
 47 -246 l 1
 47 0 l 2
 47 62 67 109 107 143 c 0
 128 162 156 172 191 171 c 1
 191 189 191 193 191 206 c 0
 191 256 215 301 263 341 c 0
 288 362 322 373 365 373 c 0
 393 373 422 366 452 354 c 0
 513 328 549 286 558 229 c 0
 561 214 562 198 562 179 c 0
 562 126 544 87 507 62 c 0
 471 37 434 24 399 24 c 0
 346 24 292 37 238 64 c 0
EndSplineSet
EndChar

StartChar: uniFEE2
Encoding: 65250 65250 101
Width: 613
Flags: W
AnchorPoint: "rtl-above" 291 456 basechar 0
AnchorPoint: "rtl-below" 339 -135 basechar 0
LayerCount: 2
Fore
SplineSet
275 100 m 1
 298 92 341 82 355 82 c 0
 370 82 382 87 388 94 c 0
 403 113 410 129 410 143 c 0
 410 153 409 161 407 165 c 0
 403 185 393 198 377 204 c 0
 365 210 351 214 336 214 c 0
 317 214 304 208 296 197 c 0
 279 175 270 157 270 141 c 0
 270 132 272 117 275 100 c 1
487 26 m 1
 482 21 477 18 473 15 c 0
 432 -10 396 -23 365 -23 c 0
 306 -23 252 -10 204 16 c 0
 184 26 165 23 148 5 c 0
 140 -4 136 -21 136 -48 c 2
 136 -246 l 1
 18 -246 l 1
 18 -48 l 2
 18 14 38 61 78 96 c 0
 99 115 126 124 157 124 c 1
 157 142 156 146 156 159 c 0
 156 209 180 254 228 293 c 0
 253 314 288 325 331 325 c 0
 359 325 387 318 417 306 c 0
 476 282 512 240 524 182 c 0
 527 169 532 152 541 129 c 0
 546 117 556 110 571 106 c 0
 583 103 596 101 609 101 c 2
 608 101 613 101 624 101 c 1
 624 0 l 1
 582 0 l 2
 530 0 498 9 487 26 c 1
EndSplineSet
EndChar

StartChar: uniFEE3
Encoding: 65251 65251 102
Width: 613
Flags: W
AnchorPoint: "rtl-above" 267 448 basechar 0
AnchorPoint: "rtl-below" 276 -106 basechar 0
LayerCount: 2
Fore
SplineSet
448 19 m 0
 416 -9 378 -24 332 -25 c 0
 260 -26 206 -7 170 27 c 1
 140 5 84 0 50 0 c 2
 -14 0 l 1
 -14 101 l 1
 38 101 l 2
 81 99 117 122 125 162 c 0
 133 219 157 262 197 291 c 0
 223 311 259 321 303 321 c 0
 330 321 357 315 385 304 c 0
 448 278 483 237 491 180 c 0
 493 167 494 152 494 136 c 0
 494 84 479 45 448 19 c 0
237 107 m 1
 256 91 284 84 323 82 c 0
 339 82 350 86 355 92 c 0
 370 110 377 126 377 142 c 0
 377 152 375 159 374 163 c 0
 370 183 359 195 345 202 c 0
 333 208 320 212 306 212 c 0
 289 212 275 206 264 195 c 0
 250 180 242 163 239 141 c 0
 237 132 237 121 237 107 c 1
EndSplineSet
EndChar

StartChar: uniFEE4
Encoding: 65252 65252 103
Width: 613
Flags: W
AnchorPoint: "rtl-above" 266 465 basechar 0
AnchorPoint: "rtl-below" 267 -103 basechar 0
LayerCount: 2
Fore
SplineSet
448 22 m 1
 411 -9 370 -25 327 -25 c 0
 255 -25 202 -7 166 27 c 1
 142 8 93 0 57 0 c 2
 -14 0 l 1
 -14 101 l 1
 44 101 l 2
 82 101 115 124 121 162 c 0
 132 221 155 264 192 291 c 0
 218 311 254 321 298 321 c 0
 326 321 353 315 380 304 c 0
 443 277 478 236 486 180 c 0
 488 161 498 141 514 121 c 0
 525 107 544 101 574 101 c 2
 624 101 l 1
 624 0 l 1
 547 0 l 2
 490 0 457 8 448 22 c 1
231 107 m 1
 250 91 279 84 318 82 c 0
 334 82 345 86 350 92 c 0
 365 110 372 126 372 142 c 0
 372 152 371 159 370 163 c 0
 366 183 355 195 340 202 c 0
 328 208 315 212 301 212 c 0
 284 212 269 206 258 195 c 0
 245 181 238 163 234 141 c 0
 232 132 231 121 231 107 c 1
EndSplineSet
EndChar

StartChar: uniFEE9
Encoding: 65257 65257 108
Width: 613
Flags: W
AnchorPoint: "rtl-above" 240 491 basechar 0
AnchorPoint: "rtl-below" 289 -89 basechar 0
LayerCount: 2
Fore
SplineSet
267 262 m 0
 248 263 234 250 225 225 c 0
 217 206 213 178 213 142 c 0
 213 118 221 100 237 87 c 0
 253 74 271 67 287 67 c 0
 313 67 340 76 367 92 c 0
 389 105 400 125 400 149 c 0
 400 171 390 192 370 211 c 0
 334 246 300 263 267 262 c 0
243 367 m 0
 317 367 383 340 444 287 c 0
 491 246 515 200 515 151 c 0
 515 85 490 39 441 13 c 0
 389 -15 335 -28 281 -29 c 0
 242 -30 209 -24 182 -12 c 0
 126 13 98 65 99 145 c 0
 100 204 105 247 117 274 c 0
 145 335 187 366 243 367 c 0
EndSplineSet
EndChar

StartChar: uniFEEA
Encoding: 65258 65258 109
Width: 613
Flags: W
AnchorPoint: "rtl-above" 248 500 basechar 0
AnchorPoint: "rtl-below" 256 -54 basechar 0
LayerCount: 2
Fore
SplineSet
360 159 m 1
 355 173 350 188 346 204 c 0
 342 221 338 246 334 280 c 1
 297 276 266 264 242 244 c 0
 205 214 187 189 188 170 c 0
 188 151 206 138 240 133 c 0
 270 128 311 137 360 159 c 1
326 366 m 1
 325 379 324 393 323 407 c 1
 436 407 l 1
 436 346 442 287 454 231 c 0
 462 194 474 163 493 136 c 0
 509 113 535 101 568 101 c 2
 624 101 l 1
 624 0 l 1
 526 0 l 2
 493 0 467 9 448 26 c 0
 440 32 432 40 408 73 c 1
 361 49 313 37 261 37 c 0
 247 37 228 40 204 45 c 0
 124 61 85 100 84 160 c 0
 84 222 121 277 196 324 c 0
 232 347 275 361 326 366 c 1
EndSplineSet
EndChar

StartChar: uniFEEB
Encoding: 65259 65259 110
Width: 613
Flags: W
AnchorPoint: "rtl-above" 200 582 basechar 0
AnchorPoint: "rtl-below" 198 -91 basechar 0
LayerCount: 2
Fore
SplineSet
359 241 m 1
 361 229 360 217 360 205 c 0
 358 164 343 127 313 92 c 0
 308 87 303 81 297 74 c 1
 311 63 326 57 342 57 c 0
 382 57 405 68 410 91 c 0
 413 102 414 111 413 122 c 0
 412 137 407 158 396 184 c 0
 389 202 377 221 359 241 c 1
60 101 m 2
 76 101 93 102 114 105 c 1
 101 135 92 161 87 184 c 0
 80 211 77 235 77 256 c 0
 77 282 84 308 99 335 c 0
 114 362 134 379 158 383 c 1
 144 392 123 400 82 406 c 1
 105 502 l 1
 114 506 117 508 125 506 c 0
 146 501 142 493 144 493 c 0
 208 471 276 440 351 377 c 0
 434 307 486 234 506 160 c 0
 511 143 514 124 514 105 c 0
 514 69 506 39 489 18 c 0
 460 -20 415 -38 351 -38 c 0
 300 -38 253 -20 199 15 c 1
 164 6 124 0 76 0 c 2
 -12 0 l 1
 -12 101 l 1
 60 101 l 2
219 147 m 1
 230 156 241 170 250 188 c 0
 260 208 265 227 265 246 c 0
 265 258 262 272 257 286 c 0
 251 301 240 309 226 309 c 0
 210 309 198 303 191 290 c 0
 184 275 180 263 180 252 c 0
 179 242 180 231 183 219 c 0
 189 189 201 165 219 147 c 1
EndSplineSet
EndChar

StartChar: uniFEEC
Encoding: 65260 65260 111
Width: 613
Flags: W
AnchorPoint: "rtl-above" 228 437 basechar 0
AnchorPoint: "rtl-below" 235 -279 basechar 0
LayerCount: 2
Fore
SplineSet
245 101 m 1
 255 101 l 2
 272 101 294 114 322 140 c 0
 354 168 370 191 370 210 c 0
 370 246 358 264 334 264 c 0
 312 263 288 241 264 195 c 0
 251 171 245 140 245 101 c 1
134 101 m 1
 137 176 159 247 211 305 c 0
 246 341 287 360 336 360 c 0
 388 360 426 344 450 311 c 0
 469 286 478 253 478 211 c 0
 478 175 456 138 412 101 c 1
 624 101 l 1
 624 0 l 1
 412 0 l 1
 456 -37 478 -74 478 -110 c 0
 478 -152 469 -185 450 -210 c 0
 427 -243 389 -259 336 -259 c 0
 287 -259 246 -240 211 -204 c 0
 169 -159 138 -91 134 0 c 1
 -12 0 l 1
 -12 101 l 1
 134 101 l 1
245 0 m 1
 245 -39 251 -70 264 -94 c 0
 288 -140 312 -162 334 -163 c 0
 358 -163 370 -145 370 -109 c 0
 370 -90 354 -67 322 -39 c 0
 294 -13 271 0 255 0 c 2
 245 0 l 1
EndSplineSet
EndChar

StartChar: uniFEED
Encoding: 65261 65261 112
Width: 613
Flags: W
AnchorPoint: "rtl-above" 312 468 basechar 0
AnchorPoint: "rtl-below" 290 -272 basechar 0
LayerCount: 2
Fore
SplineSet
372 219 m 0
 352 219 337 212 325 196 c 0
 317 185 313 174 313 161 c 0
 312 144 323 130 344 118 c 0
 362 107 396 102 446 101 c 1
 446 154 434 190 409 207 c 0
 396 215 384 219 372 219 c 0
558 92 m 0
 558 -5 529 -83 472 -142 c 0
 452 -163 417 -185 367 -207 c 0
 304 -236 194 -250 36 -250 c 1
 36 -144 l 1
 174 -144 266 -133 312 -110 c 0
 382 -75 423 -38 438 2 c 1
 409 3 382 4 357 6 c 0
 309 12 275 23 252 40 c 0
 213 69 194 108 194 158 c 0
 194 235 228 288 299 318 c 0
 318 326 341 330 369 330 c 0
 413 331 448 321 472 304 c 0
 515 273 541 233 549 181 c 0
 555 147 558 117 558 92 c 0
EndSplineSet
EndChar

StartChar: uniFEEE
Encoding: 65262 65262 113
Width: 613
Flags: W
AnchorPoint: "rtl-above" 254 423 basechar 0
AnchorPoint: "rtl-below" 232 -280 basechar 0
LayerCount: 2
Fore
SplineSet
410 101 m 1
 410 122 408 140 404 156 c 0
 397 180 387 197 373 207 c 0
 361 215 350 219 338 219 c 0
 324 219 315 217 306 209 c 0
 290 199 280 185 278 169 c 0
 275 149 285 131 308 118 c 0
 326 107 360 102 410 101 c 1
521 101 m 1
 521 101 600 101 624 101 c 1
 624 0 l 1
 512 0 l 1
 502 -53 476 -100 436 -142 c 0
 408 -170 378 -192 344 -207 c 0
 280 -236 173 -250 23 -250 c 1
 23 -144 l 1
 159 -144 247 -133 288 -110 c 0
 347 -77 385 -39 402 2 c 1
 373 3 346 4 321 6 c 0
 273 12 239 23 216 40 c 0
 179 67 160 106 158 155 c 0
 157 171 159 187 163 206 c 0
 174 257 207 294 263 318 c 0
 283 326 307 330 335 330 c 0
 379 329 413 320 436 304 c 0
 479 274 505 233 513 181 c 0
 518 154 520 128 521 101 c 1
EndSplineSet
EndChar

StartChar: uniFEEF
Encoding: 65263 65263 114
Width: 613
Flags: W
AnchorPoint: "rtl-above" 310 533 basechar 0
AnchorPoint: "rtl-below" 281 -186 basechar 0
LayerCount: 2
Fore
SplineSet
578 -8 m 0
 538 -66 490 -104 433 -122 c 0
 376 -143 318 -152 258 -152 c 0
 205 -152 162 -145 130 -132 c 0
 46 -98 5 -34 5 61 c 0
 5 100 19 159 53 197 c 1
 139 149 l 1
 127 117 119 94 119 61 c 0
 119 10 141 -22 184 -33 c 0
 209 -40 236 -43 264 -43 c 0
 307 -44 345 -37 378 -25 c 0
 410 -13 436 3 454 26 c 0
 473 50 482 68 482 82 c 0
 483 98 478 111 471 122 c 0
 459 139 433 155 393 168 c 0
 341 181 315 218 316 278 c 0
 316 332 334 370 370 391 c 0
 400 409 432 418 467 418 c 0
 528 418 566 404 584 376 c 0
 601 348 611 313 614 270 c 1
 503 270 l 1
 503 290 501 303 495 310 c 0
 485 321 474 327 461 326 c 0
 454 325 445 322 437 314 c 0
 426 304 421 292 421 277 c 0
 421 259 442 243 484 231 c 0
 530 220 564 194 586 154 c 0
 597 135 602 110 602 78 c 0
 602 46 594 17 578 -8 c 0
EndSplineSet
EndChar

StartChar: uniFEF0
Encoding: 65264 65264 115
Width: 613
Flags: W
AnchorPoint: "rtl-below" 212 -214 basechar 0
AnchorPoint: "rtl-above" 217 322 basechar 0
LayerCount: 2
Fore
SplineSet
377 22 m 0
 376 34 374 43 370 47 c 0
 363 56 354 65 344 75 c 0
 329 91 322 112 322 138 c 0
 323 168 330 193 344 211 c 0
 365 237 389 254 417 261 c 0
 429 264 446 266 469 266 c 0
 495 266 516 259 534 244 c 0
 552 229 565 210 572 184 c 0
 588 129 602 101 612 101 c 2
 611 101 617 101 624 101 c 1
 624 0 l 1
 607 0 l 2
 558 0 524 29 505 86 c 0
 487 141 471 168 458 168 c 0
 450 168 444 165 439 160 c 0
 433 154 430 148 430 139 c 0
 430 137 437 126 451 107 c 0
 472 80 483 52 483 25 c 0
 483 -12 471 -43 447 -67 c 0
 417 -98 377 -120 327 -132 c 0
 278 -147 235 -154 198 -154 c 0
 158 -154 113 -148 64 -136 c 0
 -12 -117 -51 -69 -56 9 c 0
 -58 40 -52 91 -36 137 c 1
 67 110 l 1
 62 91 58 65 58 26 c 0
 58 -10 80 -32 122 -40 c 0
 144 -44 168 -46 197 -46 c 0
 229 -46 258 -43 284 -37 c 0
 314 -29 335 -21 348 -12 c 0
 367 2 377 13 377 22 c 0
EndSplineSet
EndChar

StartChar: uniFEFB
Encoding: 65275 65275 126
Width: 613
Flags: W
AnchorPoint: "Ligature rtl-above" 110 751 baselig 1
AnchorPoint: "Ligature rtl-above" 460 820 baselig 0
AnchorPoint: "Ligature rtl-below" 430 6 baselig 1
AnchorPoint: "Ligature rtl-below" 494 40 baselig 0
LayerCount: 2
Fore
SplineSet
537 417 m 2
 538 315 515 229 470 158 c 0
 451 128 429 100 403 76 c 0
 339 18 274 -10 208 -10 c 0
 173 -10 143 -5 118 6 c 1
 118 112 l 1
 150 101 180 96 208 96 c 0
 245 96 282 115 318 155 c 1
 82 683 l 1
 177 724 l 1
 186 719 189 717 192 710 c 0
 201 690 192 689 193 687 c 2
 193 687 252 555 387 253 c 1
 395 267 401 281 407 298 c 0
 417 336 420 382 421 435 c 2
 421 778 l 1
 537 778 l 1
 543 770 545 767 545 759 c 0
 545 737 537 740 537 738 c 2
 537 417 l 2
EndSplineSet
LCarets2: 1 0
Ligature2: "Lam-Alef ligature-1" uniFEDF uniFE8E
EndChar

StartChar: uniFEFC
Encoding: 65276 65276 127
Width: 613
Flags: W
AnchorPoint: "Ligature rtl-above" 442 820 baselig 0
AnchorPoint: "Ligature rtl-above" 92 751 baselig 1
AnchorPoint: "Ligature rtl-below" 340 -50 baselig 0
AnchorPoint: "Ligature rtl-below" 375 -20 baselig 1
LayerCount: 2
Fore
SplineSet
423 126 m 1
 404 101 384 79 362 62 c 0
 303 14 244 -10 185 -10 c 0
 150 -10 120 -5 95 6 c 1
 95 112 l 1
 127 101 157 96 185 96 c 0
 222 96 259 115 295 155 c 1
 58 685 l 1
 153 726 l 1
 162 721 165 719 168 712 c 0
 177 692 168 691 169 689 c 2
 169 689 229 555 364 253 c 1
 372 268 379 284 385 302 c 0
 394 339 397 384 398 435 c 2
 398 778 l 1
 514 778 l 1
 514 301 l 2
 514 228 519 185 529 159 c 0
 545 118 562 101 583 101 c 2
 624 101 l 1
 624 0 l 1
 560 0 l 2
 507 0 466 30 436 91 c 0
 430 103 426 114 423 126 c 1
EndSplineSet
LCarets2: 1 0
Ligature2: "Lam-Alef ligature-1" uniFEE0 uniFE8E
EndChar

StartChar: uni066E
Encoding: 1646 1646 128
Width: 613
Flags: W
AnchorPoint: "rtl-below" 306 -77 basechar 0
AnchorPoint: "rtl-above" 301 402 basechar 0
LayerCount: 2
Fore
SplineSet
479 273 m 1
 580 308 l 1
 588 302 591 300 594 292 c 0
 601 271 592 272 593 270 c 0
 600 243 603 209 603 168 c 0
 603 124 574 81 516 37 c 0
 472 4 400 -14 300 -14 c 0
 222 -14 157 -4 106 14 c 0
 50 34 23 82 23 160 c 0
 23 184 32 228 44 266 c 1
 148 237 l 1
 139 197 135 180 135 160 c 0
 135 129 153 108 190 95 c 0
 216 86 252 82 297 82 c 0
 350 82 394 94 430 116 c 0
 470 141 491 170 491 202 c 0
 491 227 486 253 479 273 c 1
EndSplineSet
Substitution2: "Final forms-1" uni066E.fina
Substitution2: "Medial forms-1" uniFBE9
Substitution2: "Initial forms-1" uniFBE8
EndChar

StartChar: uni066E.fina
Encoding: 65536 -1 129
Width: 613
Flags: W
AnchorPoint: "rtl-below" 290 -73 basechar 0
AnchorPoint: "rtl-above" 264 410 basechar 0
LayerCount: 2
Fore
SplineSet
284 -10 m 0
 218 -10 163 -2 121 14 c 0
 62 36 32 85 32 160 c 0
 32 186 41 233 55 269 c 1
 159 236 l 1
 149 199 146 186 146 164 c 0
 146 135 165 114 202 102 c 0
 225 95 256 92 294 92 c 0
 314 92 343 98 378 112 c 0
 407 122 428 135 442 151 c 0
 459 170 466 189 466 212 c 0
 466 237 463 256 455 270 c 1
 565 270 l 1
 571 245 574 217 574 188 c 0
 574 161 578 138 586 121 c 0
 593 108 600 101 608 101 c 2
 624 101 l 1
 624 0 l 1
 587 0 l 2
 568 0 552 6 538 18 c 0
 521 32 511 48 506 68 c 1
 485 47 456 30 421 15 c 0
 382 -2 336 -10 284 -10 c 0
EndSplineSet
EndChar

StartChar: uniFBE8
Encoding: 64488 64488 130
Width: 613
Flags: W
AnchorPoint: "rtl-below" 278 -70 basechar 0
AnchorPoint: "rtl-above" 267 480 basechar 0
LayerCount: 2
Fore
SplineSet
313 43 m 0
 289 14 216 0 94 0 c 2
 -16 0 l 1
 -16 101 l 1
 67 101 l 2
 154 101 205 108 220 123 c 0
 236 139 245 165 245 201 c 2
 245 300 l 1
 359 300 l 1
 365 292 367 289 367 281 c 0
 367 259 359 262 359 260 c 2
 359 201 l 2
 359 132 344 80 313 43 c 0
EndSplineSet
EndChar

StartChar: uniFBE9
Encoding: 64489 64489 131
Width: 613
Flags: W
AnchorPoint: "rtl-below" 285 -72 basechar 0
AnchorPoint: "rtl-above" 290 482 basechar 0
LayerCount: 2
Fore
SplineSet
301 40 m 1
 278 13 230 0 156 0 c 2
 -15 0 l 1
 -15 101 l 1
 116 101 l 2
 170 101 204 108 219 123 c 0
 235 139 243 165 243 201 c 2
 243 309 l 1
 359 309 l 1
 359 201 l 2
 359 166 367 140 384 123 c 0
 399 108 433 101 488 101 c 2
 627 101 l 1
 627 0 l 1
 448 0 l 2
 375 0 326 13 301 40 c 1
EndSplineSet
EndChar

StartChar: uni06A1
Encoding: 1697 1697 132
Width: 613
Flags: W
AnchorPoint: "rtl-below" 269 -102 basechar 0
AnchorPoint: "rtl-above" 349 533 basechar 0
LayerCount: 2
Fore
SplineSet
468 232 m 0
 478 245 484 260 484 280 c 0
 484 297 475 313 456 328 c 0
 446 337 433 341 418 340 c 0
 400 340 384 333 372 319 c 0
 361 307 356 294 356 280 c 0
 356 255 363 237 379 227 c 0
 392 218 405 214 420 214 c 0
 443 214 459 220 468 232 c 0
540 32 m 0
 510 3 461 -20 394 -35 c 0
 334 -48 277 -55 222 -55 c 0
 169 -55 123 -48 84 -35 c 0
 -2 -5 -44 59 -46 157 c 0
 -47 203 -38 258 -22 289 c 1
 79 250 l 1
 72 219 68 202 68 157 c 0
 68 111 88 81 128 66 c 0
 157 55 189 48 222 48 c 0
 265 48 302 53 335 60 c 0
 385 72 418 84 435 95 c 0
 454 108 469 126 478 148 c 1
 462 132 437 124 405 124 c 0
 359 124 322 135 294 158 c 0
 257 188 239 226 239 270 c 0
 239 293 241 313 245 328 c 0
 256 372 284 405 329 425 c 0
 361 439 391 446 420 446 c 0
 451 446 479 439 504 424 c 0
 533 406 559 376 581 337 c 0
 590 320 595 288 595 242 c 0
 595 140 577 70 540 32 c 0
EndSplineSet
Substitution2: "Final forms-1" uni06A1.fina
Substitution2: "Medial forms-1" uni066F.medi
Substitution2: "Initial forms-1" uni066F.init
EndChar

StartChar: uni06A1.fina
Encoding: 65537 -1 133
Width: 613
Flags: W
AnchorPoint: "rtl-below" 281 -106 basechar 0
AnchorPoint: "rtl-above" 335 468 basechar 0
LayerCount: 2
Fore
SplineSet
440 16 m 1
 425 6 396 -4 355 -16 c 0
 289 -36 237 -46 197 -47 c 0
 142 -47 94 -39 54 -24 c 0
 -37 11 -83 71 -83 157 c 0
 -83 203 -73 259 -47 290 c 1
 42 248 l 1
 34 224 26 197 26 157 c 0
 26 119 50 88 99 69 c 0
 123 60 157 55 200 55 c 0
 233 55 276 65 327 84 c 1
 314 93 298 107 283 128 c 0
 255 166 241 202 241 235 c 0
 241 259 243 278 247 289 c 0
 258 332 289 363 342 385 c 0
 368 397 394 402 421 402 c 0
 459 402 491 394 518 377 c 0
 560 351 585 322 590 290 c 0
 596 273 600 251 600 223 c 0
 600 179 586 138 558 101 c 1
 562 101 562 101 566 101 c 2
 566 101 612 101 624 101 c 1
 624 0 l 1
 548 0 l 2
 508 0 472 5 440 16 c 1
440 128 m 1
 472 149 488 177 488 212 c 0
 488 221 487 231 485 240 c 0
 482 259 472 272 458 283 c 0
 447 292 434 296 421 296 c 0
 413 296 405 294 398 290 c 0
 378 282 366 268 360 251 c 0
 358 244 358 238 358 233 c 0
 359 218 364 203 374 186 c 0
 390 160 412 140 440 128 c 1
EndSplineSet
EndChar

StartChar: uni066F
Encoding: 1647 1647 134
Width: 613
Flags: W
AnchorPoint: "rtl-below" 280 -234 basechar 0
AnchorPoint: "rtl-above" 298 600 basechar 0
LayerCount: 2
Fore
SplineSet
441 272 m 0
 454 284 461 303 462 328 c 0
 462 344 453 361 436 376 c 0
 425 386 412 391 396 391 c 0
 380 391 365 385 354 372 c 0
 342 359 336 344 336 328 c 0
 336 304 343 287 357 276 c 0
 371 265 385 260 398 260 c 0
 417 260 432 264 441 272 c 0
240 -98 m 0
 309 -97 360 -77 394 -35 c 0
 452 35 481 109 481 188 c 1
 464 169 433 159 388 159 c 0
 344 159 308 171 278 194 c 0
 238 225 217 266 217 318 c 0
 217 335 218 351 221 366 c 0
 233 424 265 465 319 490 c 0
 345 502 373 509 402 509 c 0
 444 509 477 499 500 479 c 0
 534 450 557 417 570 380 c 0
 582 346 589 296 589 232 c 0
 589 150 581 84 566 35 c 0
 543 -36 507 -94 455 -139 c 0
 397 -188 327 -213 245 -213 c 0
 174 -213 114 -187 64 -134 c 0
 26 -97 7 -46 7 18 c 0
 7 83 20 163 47 221 c 1
 147 183 l 1
 127 120 118 88 118 46 c 0
 118 14 124 -11 135 -29 c 0
 161 -75 196 -98 240 -98 c 0
EndSplineSet
Substitution2: "Final forms-1" uni066F.fina
Substitution2: "Medial forms-1" uni066F.medi
Substitution2: "Initial forms-1" uni066F.init
EndChar

StartChar: uni066F.fina
Encoding: 65538 -1 135
Width: 613
Flags: W
AnchorPoint: "rtl-below" 257 -286 basechar 0
AnchorPoint: "rtl-above" 298 453 basechar 0
LayerCount: 2
Fore
SplineSet
452 5 m 1
 427 7 406 10 388 14 c 0
 341 25 305 43 280 66 c 0
 237 103 216 148 216 200 c 0
 216 225 220 248 228 269 c 0
 239 307 266 336 307 357 c 0
 330 370 360 377 396 377 c 0
 438 377 466 372 482 360 c 0
 516 335 541 302 555 261 c 0
 564 235 569 182 572 101 c 1
 583 101 585 101 587 101 c 2
 624 101 l 1
 624 0 l 1
 585 0 l 1
 561 0 l 1
 553 -33 538 -67 517 -99 c 0
 484 -148 443 -186 394 -211 c 0
 346 -235 288 -247 220 -246 c 0
 117 -245 50 -213 19 -150 c 0
 -1 -108 -12 -64 -12 -18 c 0
 -12 30 0 91 22 130 c 1
 119 91 l 1
 105 50 99 23 99 -20 c 0
 99 -45 105 -70 118 -93 c 0
 135 -127 173 -144 230 -144 c 0
 269 -144 307 -134 342 -114 c 0
 389 -88 425 -48 452 5 c 1
470 110 m 1
 471 149 468 181 461 208 c 0
 455 230 447 246 433 256 c 0
 422 265 409 269 397 269 c 0
 386 269 377 267 370 263 c 0
 353 255 342 244 337 230 c 0
 333 218 330 207 330 197 c 0
 330 180 339 164 357 150 c 0
 375 135 400 125 428 118 c 0
 447 113 461 110 470 110 c 1
EndSplineSet
EndChar

StartChar: uni066F.init
Encoding: 65539 -1 136
Width: 613
Flags: W
AnchorPoint: "rtl-below" 206 -63 basechar 0
AnchorPoint: "rtl-above" 202 582 basechar 0
LayerCount: 2
Fore
SplineSet
288 279 m 0
 299 291 305 308 305 328 c 0
 305 344 296 360 278 373 c 0
 269 380 258 383 247 383 c 0
 233 383 221 377 210 365 c 0
 199 354 193 341 193 328 c 0
 193 306 200 289 215 279 c 0
 226 272 237 269 249 269 c 0
 269 269 281 272 288 279 c 0
-12 101 m 1
 108 101 l 2
 159 101 202 106 239 115 c 0
 265 123 283 137 296 156 c 0
 308 172 313 186 313 200 c 1
 298 184 272 176 238 176 c 0
 188 175 149 187 123 210 c 0
 91 238 75 274 75 318 c 0
 75 334 76 350 79 366 c 0
 87 415 116 451 165 474 c 0
 191 486 221 492 253 492 c 0
 289 492 319 484 343 468 c 0
 370 449 391 424 407 392 c 0
 419 371 425 338 425 296 c 0
 425 220 413 158 388 110 c 0
 368 70 330 40 276 20 c 0
 240 7 197 0 148 0 c 2
 -12 0 l 1
 -12 101 l 1
EndSplineSet
EndChar

StartChar: uni066F.medi
Encoding: 65540 -1 137
Width: 613
Flags: W
AnchorPoint: "rtl-below" 303 -58 basechar 0
AnchorPoint: "rtl-above" 281 502 basechar 0
LayerCount: 2
Fore
SplineSet
371 393 m 0
 427 371 460 339 470 298 c 0
 476 279 477 257 477 229 c 0
 477 207 473 187 466 168 c 0
 459 149 446 130 426 110 c 1
 439 104 468 101 512 101 c 2
 624 101 l 1
 624 0 l 1
 467 0 l 2
 422 0 368 9 306 28 c 1
 245 9 191 0 146 0 c 2
 -12 0 l 1
 -12 101 l 1
 101 101 l 2
 145 101 174 104 187 109 c 1
 172 120 158 139 146 168 c 0
 139 183 136 204 136 229 c 0
 136 257 139 279 147 299 c 0
 161 341 192 372 239 392 c 0
 257 398 279 402 306 402 c 0
 334 402 356 399 371 393 c 0
306 300 m 0
 298 300 292 297 286 294 c 0
 272 285 262 273 256 261 c 0
 251 251 249 242 249 233 c 0
 249 219 253 205 261 192 c 0
 273 172 288 159 306 152 c 1
 322 159 338 172 350 192 c 0
 358 205 362 219 362 233 c 0
 362 243 359 253 356 262 c 0
 350 275 339 286 324 295 c 0
 318 298 312 300 306 300 c 0
EndSplineSet
EndChar

StartChar: uniFB9E
Encoding: 64414 64414 138
Width: 613
Flags: W
AnchorPoint: "rtl-below" 296 -205 basechar 0
AnchorPoint: "rtl-above" 241 360 basechar 0
LayerCount: 2
Fore
SplineSet
588 128 m 0
 588 61 573 2 542 -51 c 0
 520 -88 485 -118 436 -139 c 0
 395 -157 346 -166 290 -166 c 0
 234 -166 184 -155 142 -134 c 0
 59 -93 15 -27 17 63 c 0
 18 121 28 192 48 245 c 1
 153 211 l 1
 141 166 134 124 134 72 c 0
 134 20 158 -19 206 -42 c 0
 228 -53 255 -58 290 -58 c 0
 321 -58 345 -55 363 -48 c 0
 408 -31 440 0 456 46 c 0
 468 79 473 112 473 144 c 0
 473 235 462 304 447 336 c 1
 542 380 l 1
 551 375 554 373 557 366 c 0
 566 346 558 346 559 344 c 0
 578 291 588 219 588 128 c 0
EndSplineSet
EndChar

StartChar: uniFB9F
Encoding: 64415 64415 139
Width: 613
Flags: W
AnchorPoint: "rtl-below" 228 -287 basechar 0
AnchorPoint: "rtl-above" 193 260 basechar 0
LayerCount: 2
Fore
SplineSet
492 -134 m 0
 470 -171 435 -201 386 -222 c 0
 345 -240 296 -249 240 -249 c 0
 184 -249 134 -238 92 -217 c 0
 8 -176 -33 -111 -33 -21 c 0
 -33 36 -23 105 -1 159 c 1
 103 129 l 1
 91 81 84 40 84 -12 c 0
 84 -65 108 -103 156 -126 c 0
 178 -137 206 -142 240 -142 c 0
 271 -142 295 -139 313 -132 c 0
 359 -115 390 -83 406 -37 c 0
 417 -5 422 29 422 65 c 0
 422 144 411 190 393 242 c 1
 493 280 l 1
 505 260 510 224 520 191 c 0
 527 167 537 146 550 126 c 0
 560 110 576 101 599 101 c 2
 625 101 l 1
 625 0 l 1
 578 0 l 2
 553 0 538 6 535 17 c 1
 532 -39 518 -90 492 -134 c 0
EndSplineSet
EndChar

StartChar: uniFEB1.alt
Encoding: 65541 -1 140
Width: 613
Flags: W
AnchorPoint: "rtl-above" 291 494 basechar 0
AnchorPoint: "rtl-below" 300 -231 basechar 0
LayerCount: 2
Fore
SplineSet
213 23 m 1
 211 -21 206 -63 196 -101 c 0
 185 -141 170 -174 150 -200 c 0
 126 -231 42 -246 0 -246 c 1
 0 -156 l 1
 22 -156 79 -146 94 -124 c 0
 104 -109 113 -83 120 -47 c 0
 127 -11 130 35 129 90 c 0
 129 120 126 151 121 183 c 2
 100 300 l 1
 197 300 l 1
 207 222 l 2
 211 183 217 153 225 132 c 0
 237 107 249 95 262 94 c 0
 276 93 290 112 301 152 c 0
 310 182 314 231 314 300 c 1
 412 300 l 1
 411 239 416 186 428 140 c 0
 437 107 447 90 460 90 c 0
 486 90 500 136 500 228 c 2
 500 375 l 1
 599 375 l 1
 605 367 607 364 607 356 c 0
 607 334 599 337 599 335 c 2
 599 204 l 2
 599 140 588 87 567 43 c 0
 556 21 539 3 515 -6 c 0
 500 -12 481 -14 457 -14 c 0
 434 -14 416 -8 405 4 c 0
 384 27 370 54 363 86 c 1
 357 59 344 36 325 15 c 0
 310 -1 288 -9 258 -9 c 0
 242 -9 226 1 213 23 c 1
EndSplineSet
EndChar

StartChar: uniFEB2.alt
Encoding: 65542 -1 141
Width: 613
Flags: W
AnchorPoint: "rtl-above" 228 476 basechar 0
AnchorPoint: "rtl-below" 186 -254 basechar 0
LayerCount: 2
Fore
SplineSet
421 -14 m 0
 398 -14 381 -8 369 4 c 0
 348 27 334 54 327 86 c 1
 321 59 308 36 289 15 c 0
 274 -1 251 -9 221 -9 c 0
 205 -9 190 1 177 23 c 1
 175 -21 170 -63 160 -101 c 0
 149 -141 134 -174 113 -200 c 0
 89 -231 42 -246 0 -246 c 1
 0 -156 l 1
 19 -156 42 -146 58 -124 c 0
 69 -109 78 -83 84 -47 c 0
 91 -11 94 35 94 90 c 0
 94 120 91 151 85 183 c 1
 84 183 71 257 64 300 c 1
 64 300 125 300 161 300 c 1
 170 222 l 2
 174 183 181 153 189 132 c 0
 201 107 213 95 226 94 c 0
 241 93 253 112 264 152 c 0
 273 182 278 231 278 300 c 1
 375 300 l 1
 374 239 380 186 392 140 c 0
 401 107 411 90 424 90 c 0
 450 90 463 136 463 228 c 2
 463 375 l 1
 562 375 l 1
 562 375 562 281 562 213 c 1
 562 162 570 130 584 117 c 0
 594 106 606 101 621 101 c 2
 625 101 l 1
 625 0 l 1
 594 0 l 2
 568 0 546 15 528 43 c 1
 517 18 502 1 481 -6 c 0
 464 -12 444 -14 421 -14 c 0
EndSplineSet
EndChar

StartChar: uniFEB9.alt
Encoding: 65545 -1 144
Width: 613
Flags: W
AnchorPoint: "rtl-above" 174 474 basechar 0
AnchorPoint: "rtl-below" 355 -189 basechar 0
LayerCount: 2
Fore
SplineSet
214 161 m 1
 238 198 260 227 278 248 c 0
 324 302 372 327 424 327 c 0
 487 327 533 311 562 281 c 0
 591 250 606 215 606 178 c 0
 606 114 576 65 518 31 c 0
 483 11 440 0 387 0 c 2
 278 0 l 2
 266 0 251 5 233 15 c 0
 218 24 211 31 211 36 c 1
 211 -9 204 -54 191 -99 c 0
 180 -139 160 -174 135 -202 c 0
 106 -232 36 -246 0 -246 c 1
 0 -147 l 1
 18 -146 68 -136 81 -117 c 0
 97 -93 107 -61 110 -22 c 0
 115 18 115 54 111 86 c 0
 103 139 97 179 92 206 c 1
 137 225 l 1
 137 222 190 216 193 206 c 1
 197 193 205 178 214 161 c 1
296 101 m 1
 360 101 l 2
 400 101 429 107 447 118 c 0
 476 137 490 156 490 174 c 0
 490 187 484 199 474 211 c 0
 464 221 449 226 430 226 c 0
 406 226 380 210 351 178 c 0
 329 153 310 127 296 101 c 1
EndSplineSet
EndChar

StartChar: uniFEBA.alt
Encoding: 65546 -1 145
Width: 613
Flags: W
AnchorPoint: "rtl-above" 126 425 basechar 0
AnchorPoint: "rtl-below" 251 -165 basechar 0
LayerCount: 2
Fore
SplineSet
573 178 m 0
 573 163 570 147 563 132 c 1
 568 127 573 123 578 118 c 0
 590 107 601 101 608 101 c 2
 626 101 l 1
 626 0 l 1
 598 0 l 2
 581 0 557 12 527 38 c 2
 512 51 l 1
 467 14 404 0 354 0 c 2
 246 0 l 2
 233 0 217 5 200 15 c 0
 185 24 178 31 178 36 c 1
 178 -9 171 -54 158 -99 c 0
 146 -139 128 -174 103 -202 c 0
 73 -232 36 -246 0 -246 c 1
 0 -147 l 1
 18 -146 36 -136 49 -117 c 0
 70 -86 82 -28 82 17 c 0
 82 44 81 66 78 86 c 0
 68 154 62 197 57 225 c 1
 157 225 l 1
 158 220 159 212 162 200 c 0
 166 188 173 176 181 161 c 1
 205 198 227 227 245 248 c 0
 292 302 341 327 392 327 c 0
 455 327 501 311 530 281 c 0
 559 249 573 214 573 178 c 0
263 101 m 1
 328 101 l 2
 368 101 396 107 414 118 c 0
 443 137 457 156 457 174 c 0
 457 187 451 199 441 211 c 0
 431 221 417 226 398 226 c 0
 375 226 349 210 319 178 c 0
 297 153 278 127 263 101 c 1
EndSplineSet
EndChar

StartChar: uniFE73
Encoding: 65139 65139 148
Width: 613
Flags: W
LayerCount: 2
Fore
SplineSet
613 -246 m 1
 576 -246 540 -229 507 -196 c 0
 471 -160 453 -106 457 -32 c 0
 461 43 473 118 500 164 c 1
 581 130 l 1
 564 71 553 15 555 -32 c 0
 557 -81 565 -115 576 -132 c 0
 587 -148 599 -157 613 -156 c 1
 613 -246 l 1
EndSplineSet
EndChar

StartChar: smallhamza
Encoding: 65549 -1 149
Width: 613
GlyphClass: 1
Flags: W
LayerCount: 2
Fore
SplineSet
220 711 m 25
 261 722 l 17
 248 728 238 738 231 750 c 16
 223 764 218 778 218 794 c 0
 219 825 227 847 243 864 c 0
 260 881 294 890 321 890 c 0
 343 889 363 885 383 874 c 9
 383 819 l 17
 365 830 344 834 322 835 c 0
 306 835 295 833 290 827 c 24
 281 818 277 808 277 797 c 0
 277 775 292 757 323 745 c 17
 329 743 371 751 393 756 c 9
 393 756 393 729 393 700 c 25
 220 656 l 25
 220 711 l 25
EndSplineSet
EndChar

StartChar: madda
Encoding: 65550 -1 150
Width: 613
GlyphClass: 1
Flags: W
AnchorPoint: "rtl-above" 303 548 mark 0
AnchorPoint: "Ligature rtl-above" 303 548 mark 0
LayerCount: 2
Fore
SplineSet
119 679 m 25
 119 678 177 715 206 738 c 25
 235 714 264 697 295 687 c 0
 309 683 325 681 343 681 c 0
 361 681 378 684 393 689 c 0
 433 702 465 722 493 747 c 25
 493 668 l 17
 468 649 437 634 400 622 c 0
 378 614 358 611 340 611 c 0
 332 611 313 613 285 619 c 0
 256 625 230 638 209 661 c 25
 119 600 l 25
 119 679 l 25
EndSplineSet
EndChar

StartChar: arabic_dot
Encoding: 65553 -1 153
Width: 613
GlyphClass: 1
Flags: W
LayerCount: 2
Fore
SplineSet
-9 46 m 0
 -9 75 15 99 44 99 c 0
 73 99 97 75 97 46 c 0
 97 17 73 -7 44 -7 c 0
 15 -7 -9 17 -9 46 c 0
EndSplineSet
EndChar

StartChar: tatweelarabic
Encoding: 1600 1600 195
Width: 613
Flags: W
AnchorPoint: "rtl-above" 300 509 basechar 0
AnchorPoint: "rtl-below" 300 -67 basechar 0
LayerCount: 2
Fore
SplineSet
-15 0 m 1
 -15 101 l 1
 627 101 l 1
 627 0 l 1
 -15 0 l 1
EndSplineSet
EndChar

StartChar: uniFE70
Encoding: 65136 65136 196
Width: 613
Flags: W
LayerCount: 2
Fore
SplineSet
156 715 m 25
 156 784 l 17
 456 858 l 9
 456 790 l 25
 156 715 l 25
156 592 m 25
 156 660 l 17
 456 735 l 9
 456 666 l 25
 156 592 l 25
EndSplineSet
EndChar

StartChar: uniFE72
Encoding: 65138 65138 198
Width: 613
Flags: W
LayerCount: 2
Fore
SplineSet
339 724 m 1
 327 727 317 731 308 735 c 0
 296 741 286 748 277 756 c 0
 260 772 252 791 252 814 c 0
 252 844 262 867 284 884 c 0
 297 894 316 899 339 899 c 0
 366 899 387 893 402 880 c 0
 422 862 432 838 432 808 c 0
 432 795 429 783 426 774 c 1
 433 774 436 774 442 774 c 0
 447 774 453 774 458 774 c 1
 458 707 l 1
 449 707 439 707 428 708 c 0
 425 708 417 709 403 710 c 1
 392 683 377 657 356 634 c 0
 327 603 292 587 254 587 c 0
 229 587 209 594 192 606 c 0
 174 619 159 641 148 673 c 0
 142 690 138 718 138 758 c 1
 199 758 l 1
 198 726 201 703 207 690 c 0
 219 663 235 650 255 650 c 0
 274 650 293 660 312 680 c 0
 323 693 332 707 339 724 c 1
359 784 m 1
 360 787 361 789 362 791 c 0
 364 797 365 803 365 809 c 0
 365 818 363 826 358 830 c 0
 353 834 348 836 341 836 c 0
 334 836 329 835 326 832 c 0
 321 828 319 822 319 814 c 0
 319 803 326 795 339 790 c 0
 345 788 351 786 359 784 c 1
EndSplineSet
EndChar

StartChar: uniFE74
Encoding: 65140 65140 199
Width: 613
Flags: W
LayerCount: 2
Fore
SplineSet
156 -271 m 25
 156 -202 l 17
 456 -128 l 9
 456 -196 l 25
 156 -271 l 25
156 -148 m 25
 156 -79 l 17
 456 -5 l 9
 456 -73 l 25
 156 -148 l 25
EndSplineSet
EndChar

StartChar: uniFE76
Encoding: 65142 65142 200
Width: 613
Flags: W
LayerCount: 2
Fore
SplineSet
156 592 m 25
 156 660 l 17
 456 735 l 9
 456 666 l 25
 156 592 l 25
EndSplineSet
EndChar

StartChar: uniFE78
Encoding: 65144 65144 202
Width: 613
Flags: W
LayerCount: 2
Fore
SplineSet
318 730 m 1
 314 732 309 735 303 738 c 0
 293 743 285 749 278 756 c 0
 261 772 252 791 252 814 c 0
 252 844 262 867 284 884 c 0
 297 894 316 899 339 899 c 0
 367 899 388 892 402 880 c 0
 422 862 432 838 432 808 c 0
 432 798 430 786 426 774 c 1
 432 774 434 774 442 774 c 0
 447 774 453 774 458 774 c 1
 458 707 l 1
 449 707 436 707 419 708 c 0
 410 708 402 710 394 711 c 1
 380 693 363 677 341 662 c 0
 282 623 220 602 154 600 c 1
 154 664 l 1
 199 666 241 680 280 705 c 0
 294 713 307 721 318 730 c 1
359 784 m 1
 360 786 360 788 361 790 c 0
 364 796 365 802 365 809 c 0
 365 818 363 825 358 830 c 0
 354 834 348 836 341 836 c 0
 334 836 329 834 326 831 c 0
 321 827 319 822 319 814 c 0
 319 804 325 796 338 791 c 0
 344 789 351 786 359 784 c 1
EndSplineSet
EndChar

StartChar: uniFE7A
Encoding: 65146 65146 204
Width: 613
Flags: W
LayerCount: 2
Fore
SplineSet
156 -156 m 25
 156 -87 l 17
 456 -13 l 9
 456 -81 l 25
 156 -156 l 25
EndSplineSet
EndChar

StartChar: uniFE7C
Encoding: 65148 65148 206
Width: 613
Flags: W
LayerCount: 2
Fore
SplineSet
314 697 m 1
 309 676 301 659 291 646 c 0
 272 622 250 610 227 610 c 0
 195 610 171 621 156 645 c 0
 145 662 139 689 139 726 c 0
 139 762 142 796 147 829 c 25
 147 829 184 829 206 829 c 25
 202 787 200 757 201 738 c 0
 202 713 207 695 214 684 c 0
 221 673 233 673 248 682 c 0
 264 691 274 721 275 774 c 24
 276 802 276 831 276 860 c 9
 276 860 313 860 335 860 c 17
 335 848 336 833 337 814 c 0
 341 750 354 719 376 720 c 0
 400 720 412 748 411 804 c 0
 411 844 409 873 405 890 c 9
 468 890 l 25
 473 866 475 835 474 796 c 0
 473 752 468 720 460 702 c 0
 446 672 421 655 384 650 c 0
 361 647 345 651 334 662 c 0
 323 672 317 683 314 697 c 1
EndSplineSet
EndChar

StartChar: uniFE7E
Encoding: 65150 65150 208
Width: 613
Flags: W
LayerCount: 2
Fore
SplineSet
375 762 m 0
 375 781 368 798 355 811 c 0
 342 824 326 831 306 831 c 0
 286 831 270 824 257 811 c 0
 244 798 237 782 237 762 c 0
 237 742 244 726 257 713 c 0
 270 700 286 693 306 693 c 0
 326 693 342 700 355 713 c 0
 368 726 375 742 375 762 c 0
449 762 m 0
 449 722 435 688 408 660 c 0
 381 632 346 618 306 618 c 0
 266 618 233 632 205 660 c 0
 177 688 163 722 163 762 c 0
 163 802 177 837 205 864 c 0
 233 891 266 905 306 905 c 0
 346 905 381 891 408 864 c 0
 435 837 449 802 449 762 c 0
EndSplineSet
EndChar

StartChar: zeroarabic
Encoding: 1632 1632 231
Width: 613
Flags: W
LayerCount: 2
Fore
SplineSet
239 364 m 1
 374 364 l 1
 374 211 l 1
 239 211 l 1
 239 364 l 1
EndSplineSet
EndChar

StartChar: onearabic
Encoding: 1633 1633 232
Width: 613
Flags: W
LayerCount: 2
Fore
SplineSet
421 0 m 9
 308 0 l 17
 308 137 302 248 289 334 c 0
 273 445 241 557 192 672 c 9
 313 672 l 17
 351 581 382 468 405 334 c 0
 416 272 421 161 421 0 c 9
EndSplineSet
EndChar

StartChar: twoarabic
Encoding: 1634 1634 233
Width: 613
Flags: W
LayerCount: 2
Fore
SplineSet
258 441 m 1
 267 407 275 371 281 334 c 0
 292 260 297 149 297 0 c 9
 183 0 l 17
 183 155 177 266 165 334 c 0
 145 441 113 554 68 672 c 25
 185 672 l 17
 207 620 219 593 220 592 c 0
 244 545 283 522 336 521 c 0
 375 521 404 543 421 590 c 24
 432 618 438 645 441 672 c 9
 555 672 l 17
 552 631 544 593 530 558 c 24
 495 467 432 422 343 422 c 0
 305 422 277 428 258 441 c 1
EndSplineSet
EndChar

StartChar: threearabic
Encoding: 1635 1635 234
Width: 613
Flags: W
LayerCount: 2
Fore
SplineSet
240 425 m 1
 246 402 252 368 259 322 c 0
 275 199 283 92 283 0 c 9
 170 0 l 17
 170 117 162 225 147 322 c 0
 128 444 95 560 49 672 c 25
 162 672 l 17
 179 629 193 590 205 554 c 24
 212 533 223 523 238 526 c 0
 259 531 271 543 273 564 c 24
 275 581 276 617 276 672 c 9
 380 672 l 17
 380 597 382 556 387 548 c 24
 394 536 405 531 421 530 c 0
 441 529 453 535 458 550 c 24
 463 564 465 605 465 672 c 9
 569 672 l 17
 569 564 563 501 551 483 c 24
 528 447 488 429 432 429 c 0
 376 429 343 440 331 463 c 1
 317 446 301 435 283 429 c 0
 270 424 255 423 240 425 c 1
EndSplineSet
EndChar

StartChar: fourarabic
Encoding: 1636 1636 235
Width: 613
Flags: W
LayerCount: 2
Fore
SplineSet
430 676 m 17
 430 580 l 1
 392 576 358 566 326 552 c 0
 281 531 258 510 258 488 c 0
 258 475 273 460 302 442 c 0
 324 429 348 421 374 419 c 9
 374 325 l 1
 337 320 299 305 262 279 c 24
 230 256 214 228 214 198 c 0
 214 171 220 150 233 134 c 24
 254 107 275 94 297 94 c 0
 330 94 363 98 396 108 c 0
 435 119 469 132 496 146 c 9
 496 34 l 1
 472 22 439 11 398 2 c 0
 365 -6 331 -10 297 -10 c 0
 237 -10 189 11 152 52 c 24
 119 89 102 138 102 198 c 0
 102 238 117 279 149 320 c 0
 171 350 196 370 224 382 c 1
 207 389 190 401 173 419 c 0
 155 437 146 460 146 488 c 0
 146 542 183 591 258 632 c 0
 303 656 360 671 430 676 c 17
EndSplineSet
EndChar

StartChar: fivearabic
Encoding: 1637 1637 236
Width: 613
Flags: W
LayerCount: 2
Fore
SplineSet
306 572 m 24
 282 572 256 539 229 472 c 24
 203 409 189 343 189 275 c 0
 188 211 198 162 219 129 c 24
 235 103 264 91 306 91 c 0
 348 91 377 103 393 129 c 24
 414 162 425 211 424 275 c 0
 423 342 410 408 383 472 c 24
 356 539 330 572 306 572 c 24
306 677 m 24
 384 677 446 617 492 496 c 0
 522 417 536 343 536 275 c 0
 536 175 520 104 487 62 c 24
 446 10 385 -15 306 -15 c 24
 227 -15 166 10 125 62 c 24
 93 103 76 174 76 275 c 0
 76 345 92 419 122 496 c 0
 169 617 230 677 306 677 c 24
EndSplineSet
EndChar

StartChar: sixarabic
Encoding: 1638 1638 237
Width: 613
Flags: W
LayerCount: 2
Fore
SplineSet
477 672 m 17
 477 566 483 455 495 339 c 0
 506 237 527 124 558 0 c 9
 558 0 558 0 440 0 c 17
 411 116 391 230 382 339 c 0
 373 447 367 520 366 557 c 9
 341 549 302 544 248 544 c 0
 175 544 111 552 55 569 c 25
 55 569 55 569 55 672 c 25
 116 655 180 648 248 648 c 0
 332 648 409 655 477 672 c 17
EndSplineSet
EndChar

StartChar: sevenarabic
Encoding: 1639 1639 238
Width: 613
Flags: W
LayerCount: 2
Fore
SplineSet
253 0 m 17
 246 89 227 186 196 291 c 0
 150 442 103 569 53 672 c 25
 174 672 l 17
 218 581 253 488 281 393 c 0
 295 347 303 317 306 303 c 1
 309 317 318 347 331 393 c 0
 359 489 395 581 438 672 c 9
 560 672 l 17
 504 559 456 432 418 291 c 0
 393 199 373 103 360 0 c 9
 253 0 l 17
EndSplineSet
EndChar

StartChar: eightarabic
Encoding: 1640 1640 239
Width: 613
Flags: W
LayerCount: 2
Fore
SplineSet
253 672 m 9
 360 672 l 17
 369 582 389 485 418 381 c 0
 456 243 504 116 560 0 c 17
 439 0 l 1
 395 91 360 185 332 280 c 0
 318 326 310 356 307 370 c 1
 304 355 295 325 282 280 c 0
 254 184 218 91 175 0 c 9
 53 0 l 17
 103 101 150 227 196 381 c 0
 223 473 242 570 253 672 c 9
EndSplineSet
EndChar

StartChar: ninearabic
Encoding: 1641 1641 240
Width: 613
Flags: W
LayerCount: 2
Fore
SplineSet
370 311 m 1
 312 312 271 315 246 320 c 0
 186 333 145 351 122 373 c 24
 87 408 70 447 70 493 c 0
 69 542 87 584 123 619 c 24
 161 657 207 675 262 675 c 0
 330 675 378 658 409 624 c 0
 437 596 455 555 462 502 c 0
 466 464 472 420 478 374 c 0
 492 264 516 139 551 0 c 9
 427 0 l 17
 399 126 380 230 370 311 c 1
359 413 m 1
 358 426 357 439 355 455 c 0
 350 491 343 517 334 532 c 0
 317 560 294 575 265 575 c 0
 243 576 224 568 208 552 c 24
 192 537 184 518 185 496 c 24
 185 477 194 459 210 443 c 24
 219 433 236 426 260 421 c 16
 283 416 316 414 359 413 c 1
EndSplineSet
EndChar

StartChar: uniFB8E
Encoding: 64398 64398 251
Width: 613
Flags: W
AnchorPoint: "rtl-above" 138 700 basechar 0
AnchorPoint: "rtl-below" 280 -82 basechar 0
LayerCount: 2
Fore
SplineSet
273 48 m 0
 321 48 359 55 390 70 c 0
 424 87 450 106 466 127 c 0
 483 151 492 174 492 198 c 0
 492 222 479 249 453 279 c 2
 368 380 l 2
 343 410 335 436 335 460 c 0
 335 484 340 503 348 516 c 0
 363 542 385 565 412 586 c 2
 412 586 437 606 619 748 c 1
 684 668 l 1
 682 658 680 655 674 650 c 0
 657 636 655 644 653 643 c 2
 487 508 l 2
 465 490 455 476 455 464 c 0
 455 445 460 429 471 417 c 2
 540 336 l 2
 584 284 606 240 606 201 c 0
 606 139 589 89 554 51 c 0
 526 20 489 -6 442 -28 c 0
 408 -43 353 -52 278 -52 c 0
 241 -52 204 -47 168 -36 c 0
 58 -3 5 60 3 154 c 0
 2 204 13 261 48 287 c 1
 130 242 l 1
 123 219 116 199 116 154 c 0
 116 115 143 85 199 62 c 0
 221 53 245 48 273 48 c 0
EndSplineSet
EndChar

StartChar: uniFB8F
Encoding: 64399 64399 252
Width: 613
Flags: W
AnchorPoint: "rtl-above" 174 664 basechar 0
AnchorPoint: "rtl-below" 224 -84 basechar 0
LayerCount: 2
Fore
SplineSet
481 66 m 1
 476 51 466 38 453 26 c 0
 432 7 405 -11 370 -28 c 0
 337 -43 283 -52 206 -52 c 0
 169 -52 132 -47 96 -36 c 0
 -13 -3 -69 60 -69 154 c 0
 -69 204 -60 262 -23 288 c 1
 57 242 l 1
 51 222 43 199 43 154 c 0
 43 115 71 85 127 62 c 0
 149 53 173 48 201 48 c 0
 249 48 288 55 319 70 c 0
 353 87 378 106 393 127 c 0
 410 150 419 169 419 184 c 0
 419 200 411 222 396 252 c 2
 326 380 l 2
 308 414 296 444 296 463 c 0
 296 488 300 506 308 518 c 0
 327 547 349 569 370 586 c 2
 580 750 l 1
 642 674 l 1
 640 664 638 661 632 656 c 0
 615 642 613 650 611 649 c 2
 444 514 l 2
 423 497 413 480 413 464 c 0
 413 446 417 429 425 414 c 2
 578 133 l 2
 590 112 603 101 617 101 c 2
 645 101 l 1
 645 0 l 1
 615 0 l 2
 584 0 560 3 544 8 c 0
 526 15 515 22 509 29 c 2
 481 66 l 1
EndSplineSet
EndChar

StartChar: arabic_gaf_bar
Encoding: 65562 -1 270
Width: 613
Flags: W
LayerCount: 2
Fore
SplineSet
346 857 m 1
 -2 586 l 1
 -54 654 l 9
 294 924 l 25
 346 857 l 1
EndSplineSet
EndChar

StartChar: arabic_gaf_bar_a
Encoding: 65563 -1 271
Width: 613
Flags: W
LayerCount: 2
Fore
SplineSet
460 846 m 1
 -2 644 l 1
 -41 733 l 25
 421 934 l 9
 460 846 l 1
EndSplineSet
EndChar

StartChar: fourpersian
Encoding: 1780 1780 276
Width: 613
Flags: W
LayerCount: 2
Fore
SplineSet
267 530 m 1
 266 535 265 541 265 547 c 0
 265 591 282 625 316 647 c 0
 347 667 383 677 424 677 c 0
 460 677 490 674 515 667 c 9
 515 667 515 666 515 572 c 17
 482 582 459 587 443 586 c 0
 418 586 401 581 392 570 c 0
 382 558 377 549 377 542 c 0
 377 527 382 516 390 508 c 16
 405 496 423 489 445 490 c 0
 469 491 501 494 542 500 c 9
 542 500 542 483 542 398 c 17
 477 389 429 385 400 385 c 0
 348 385 298 398 249 425 c 1
 257 391 264 357 270 322 c 0
 286 221 294 114 294 0 c 9
 294 0 231 0 181 0 c 17
 181 117 173 225 158 322 c 0
 139 444 106 560 60 672 c 25
 60 672 120 672 174 672 c 17
 192 633 205 601 213 575 c 0
 220 558 232 540 267 530 c 1
EndSplineSet
Substitution2: "Urdu Arabic-Indic digits-1" fourpersian.urdu
EndChar

StartChar: fivepersian
Encoding: 1781 1781 277
Width: 613
Flags: W
LayerCount: 2
Fore
SplineSet
355 179 m 17
 369 125 384 97 398 97 c 0
 409 97 417 110 424 135 c 8
 433 171 438 202 438 226 c 0
 438 303 423 380 394 454 c 24
 365 529 336 566 306 566 c 24
 276 566 246 529 217 454 c 24
 188 380 174 304 174 226 c 0
 174 210 179 179 188 135 c 16
 193 110 202 97 214 97 c 0
 228 97 243 125 257 179 c 9
 257 179 257 179 355 179 c 17
306 56 m 1
 287 12 256 -11 214 -10 c 0
 153 -9 114 17 95 69 c 8
 73 129 62 186 62 239 c 0
 62 326 79 407 111 483 c 0
 167 613 232 677 306 677 c 24
 379 677 444 613 501 483 c 0
 533 408 549 327 550 241 c 0
 550 182 539 126 517 71 c 16
 496 18 456 -9 398 -10 c 0
 356 -11 325 12 306 56 c 1
EndSplineSet
EndChar

StartChar: sixpersian
Encoding: 1782 1782 278
Width: 613
Flags: W
LayerCount: 2
Fore
SplineSet
119 0 m 17
 134 92 161 171 202 235 c 0
 219 268 247 301 285 334 c 17
 263 334 245 342 229 354 c 0
 184 390 162 433 162 484 c 0
 162 540 179 586 215 620 c 0
 252 656 300 675 359 676 c 0
 399 677 434 671 463 660 c 25
 463 660 463 611 463 561 c 17
 433 574 399 581 362 581 c 0
 337 581 318 574 302 559 c 0
 283 542 274 518 274 490 c 0
 273 466 283 447 303 433 c 0
 318 422 341 417 375 417 c 0
 427 417 466 423 493 434 c 25
 493 434 493 380 493 330 c 17
 416 306 357 264 316 204 c 0
 271 139 242 70 231 0 c 9
 231 0 169 0 119 0 c 17
EndSplineSet
Substitution2: "Sindhi forms-1" sixpersian.urdu
Substitution2: "Urdu Arabic-Indic digits-1" sixpersian.urdu
EndChar

StartChar: uniFBA7
Encoding: 64423 64423 296
Width: 613
Flags: W
AnchorPoint: "rtl-below" 256 -54 basechar 0
AnchorPoint: "rtl-above" 248 500 basechar 0
LayerCount: 2
Fore
SplineSet
31 -112 m 1
 36 90 65 203 120 259 c 0
 192 333 246 359 326 366 c 1
 325 379 324 393 323 407 c 1
 436 407 l 1
 436 346 442 287 454 231 c 0
 462 194 474 163 493 136 c 0
 509 113 535 101 568 101 c 2
 624 101 l 1
 624 0 l 1
 526 0 l 2
 493 0 467 9 448 26 c 0
 426 43 364 131 346 204 c 0
 342 221 338 246 334 280 c 1
 254 268 234 244 190 187 c 0
 161 149 148 62 143 -131 c 1
 31 -112 l 1
EndSplineSet
EndChar

StartChar: uniFBA9
Encoding: 64425 64425 298
Width: 613
Flags: W
AnchorPoint: "rtl-below" 235 -279 basechar 0
AnchorPoint: "rtl-above" 228 437 basechar 0
LayerCount: 2
Fore
SplineSet
184 43 m 1
 160 25 119 0 65 -0 c 2
 -12 -0 l 1
 -12 101 l 1
 65 101 l 2
 140 101 237 315 405 360 c 1
 439 264 l 1
 376 247 312 141 295 1 c 1
 349 65 425 101 536 101 c 2
 624 101 l 1
 624 -0 l 1
 536 -0 l 2
 391 0 354 -95 300 -259 c 1
 188 -253 l 1
 179 -206 174 -140 174 -88 c 0
 174 -44 177 0 184 43 c 1
EndSplineSet
EndChar

StartChar: uniFBAA
Encoding: 64426 64426 299
Width: 613
Flags: W
AnchorPoint: "rtl-above" 284 582 basechar 0
AnchorPoint: "rtl-below" 282 -76 basechar 0
LayerCount: 2
Fore
SplineSet
442 241 m 1
 447 205 443 172 429 142 c 0
 419 120 405 101 380 74 c 1
 394 63 410 57 426 57 c 0
 466 57 489 69 494 91 c 0
 497 101 497 111 497 122 c 0
 497 137 491 158 480 184 c 0
 472 202 460 221 442 241 c 1
303 147 m 1
 312 155 321 165 329 180 c 0
 342 202 348 224 348 246 c 0
 348 259 346 272 341 286 c 0
 335 301 325 309 310 309 c 0
 293 309 282 303 275 290 c 0
 268 275 264 263 264 252 c 0
 264 242 264 231 267 219 c 0
 272 189 284 166 303 147 c 1
160 0 m 0
 99 0 57 6 36 18 c 0
 -4 40 -24 73 -24 118 c 0
 -24 137 -20 170 -7 184 c 1
 91 149 l 1
 90 144 90 141 90 131 c 0
 90 120 95 111 107 107 c 0
 119 102 131 100 144 101 c 0
 163 102 182 103 198 105 c 1
 185 134 175 161 170 184 c 0
 164 211 161 235 161 256 c 0
 161 282 168 308 183 335 c 0
 198 362 217 378 241 383 c 1
 227 392 207 400 166 406 c 1
 189 502 l 1
 198 506 201 508 209 506 c 0
 230 501 226 493 228 493 c 0
 292 471 360 440 435 377 c 0
 518 307 569 234 590 160 c 0
 595 143 598 124 598 105 c 0
 598 69 589 40 573 18 c 0
 545 -20 499 -38 435 -38 c 0
 387 -38 337 -22 283 15 c 1
 248 5 207 0 160 0 c 0
EndSplineSet
EndChar

StartChar: uniFBAB
Encoding: 64427 64427 300
Width: 613
Flags: W
AnchorPoint: "rtl-above" 296 576 basechar 0
AnchorPoint: "rtl-below" 296 -78 basechar 0
LayerCount: 2
Fore
SplineSet
442 241 m 1
 445 207 442 178 434 154 c 0
 426 131 417 115 407 105 c 1
 420 99 432 95 443 95 c 0
 474 95 490 103 494 117 c 0
 496 127 496 137 494 148 c 0
 493 154 488 166 480 184 c 0
 468 208 455 226 442 241 c 1
307 152 m 1
 317 162 325 172 332 185 c 0
 343 207 348 227 348 246 c 0
 348 259 346 272 341 286 c 0
 335 301 325 309 310 309 c 0
 293 309 282 303 275 290 c 0
 267 274 263 261 264 252 c 0
 264 246 264 235 267 219 c 0
 271 190 285 168 307 152 c 1
596 101 m 1
 648 101 l 1
 648 0 l 1
 452 0 l 2
 417 0 328 4 314 14 c 1
 290 4 190 0 160 0 c 0
 99 0 58 6 36 18 c 0
 -4 40 -24 73 -24 118 c 0
 -24 137 -20 170 -7 184 c 1
 91 149 l 1
 90 144 90 141 90 131 c 0
 90 120 95 111 107 107 c 0
 119 102 131 100 144 101 c 0
 158 102 181 103 210 106 c 1
 191 126 177 152 170 184 c 0
 164 211 161 235 161 256 c 0
 161 282 168 308 183 335 c 0
 198 362 217 378 241 383 c 1
 227 392 207 400 166 406 c 1
 189 502 l 1
 198 506 201 508 209 506 c 0
 230 501 226 493 228 493 c 0
 292 471 360 440 435 377 c 0
 519 305 570 234 590 163 c 0
 596 138 598 117 596 101 c 1
EndSplineSet
EndChar

StartChar: uniFBAD
Encoding: 64429 64429 302
Width: 613
Flags: W
AnchorPoint: "rtl-above" 277 576 basechar 0
AnchorPoint: "rtl-below" 277 -78 basechar 0
LayerCount: 2
Fore
SplineSet
414 241 m 1
 417 207 413 178 405 154 c 0
 397 131 388 115 378 105 c 1
 391 99 403 95 414 95 c 0
 445 95 462 103 466 117 c 0
 468 127 468 137 466 148 c 0
 465 154 460 166 452 184 c 0
 440 208 427 226 414 241 c 1
278 152 m 1
 288 162 297 172 304 185 c 0
 315 207 320 227 320 246 c 0
 320 259 317 272 312 286 c 0
 306 301 296 309 281 309 c 0
 264 309 253 303 246 290 c 0
 238 274 234 261 235 252 c 0
 235 246 236 235 239 219 c 0
 243 190 256 168 278 152 c 1
182 105 m 1
 163 125 149 152 142 184 c 0
 136 211 132 235 132 256 c 0
 132 282 139 308 154 335 c 0
 169 362 188 378 212 383 c 1
 198 392 178 400 137 406 c 1
 160 502 l 1
 169 506 172 508 180 506 c 0
 201 501 197 493 199 493 c 0
 263 471 331 440 406 377 c 0
 490 305 542 234 562 163 c 0
 569 138 571 117 568 101 c 1
 648 101 l 1
 648 0 l 1
 426 0 l 2
 391 0 300 4 286 14 c 1
 261 4 153 0 124 0 c 2
 -16 0 l 1
 -16 101 l 1
 118 101 l 2
 131 101 171 102 182 105 c 1
EndSplineSet
EndChar

StartChar: uniFBAE
Encoding: 64430 64430 303
Width: 613
Flags: W
AnchorPoint: "rtl-below" 275 -200 basechar 0
AnchorPoint: "rtl-above" 99 395 basechar 0
LayerCount: 2
Fore
SplineSet
5 0 m 0
 5 162 187 119 187 260 c 0
 187 340 202 363 249 396 c 0
 273 413 309 418 358 418 c 0
 402 418 436 401 454 378 c 0
 471 358 479 317 485 270 c 1
 374 270 l 1
 374 290 373 299 367 309 c 0
 358 320 345 327 332 326 c 0
 325 325 317 322 309 315 c 0
 297 305 292 294 292 274 c 0
 292 66 119 93 119 0 c 0
 119 -30 183 -43 264 -43 c 2
 613 -43 l 25
 613 -152 l 25
 258 -152 l 2
 102 -152 5 -81 5 0 c 0
EndSplineSet
EndChar

StartChar: uniFBAF
Encoding: 64431 64431 304
Width: 613
Flags: W
AnchorPoint: "rtl-below" 208 -282 basechar 0
AnchorPoint: "rtl-above" 191 313 basechar 0
LayerCount: 2
Fore
SplineSet
5 -84 m 3
 5 69 160 101 278 101 c 2
 624 101 l 1
 624 0 l 1
 300 0 l 2
 210 0 119 -12 119 -100 c 3
 119 -131 161 -154 216 -154 c 2
 613 -154 l 1
 613 -250 l 1
 216 -250 l 2
 77 -250 5 -175 5 -84 c 3
EndSplineSet
EndChar

StartChar: uni0615
Encoding: 65564 -1 305
Width: 613
Flags: W
LayerCount: 2
Fore
SplineSet
289 689 m 1
 289 689 302 689 317 689 c 2
 336 689 350 691 357 695 c 0
 371 704 377 711 377 718 c 0
 377 729 371 737 360 740 c 0
 352 739 341 734 327 724 c 0
 313 713 300 702 289 689 c 1
328 638 m 2
 226 638 l 1
 173 638 l 1
 173 689 l 1
 217 689 l 1
 217 902 l 1
 274 902 l 1
 274 736 l 1
 289 761 312 777 343 784 c 0
 367 788 389 785 408 774 c 0
 425 764 435 746 435 723 c 0
 435 695 423 674 399 658 c 0
 381 645 357 638 328 638 c 2
EndSplineSet
EndChar

StartChar: fourpersian.urdu
Encoding: 65565 -1 313
Width: 613
Flags: W
LayerCount: 2
Fore
SplineSet
542 555 m 1
 525 563 482 581 458 581 c 0
 451 581 427 582 420 564 c 0
 414 551 412 538 412 517 c 0
 412 465 418 442 423 387 c 1
 310 377 l 1
 300 460 l 0
 300 466 296 490 292 503 c 0
 280 542 264 588 223 588 c 3
 196 588 180 570 180 534 c 0
 180 514 186 503 200 465 c 0
 214 415 228 359 237 318 c 0
 248 269 253 163 253 0 c 1
 140 0 l 1
 140 143 134 249 121 318 c 0
 109 388 95 432 78 477 c 0
 70 499 65 520 65 538 c 0
 65 617 109 677 223 677 c 0
 250 677 290 668 330 630 c 1
 354 665 411 677 448 677 c 0
 462 677 485 675 525 661 c 0
 552 652 572 643 573 642 c 1
 542 555 l 1
EndSplineSet
EndChar

StartChar: sevenpersian.urdu
Encoding: 65567 -1 315
Width: 613
Flags: W
LayerCount: 2
Fore
SplineSet
219 101 m 1
 560 101 l 1
 560 0 l 1
 175 0 l 1
 99 101 l 1
 123 162 151 227 196 381 c 0
 223 473 242 570 253 672 c 1
 360 672 l 1
 351 533 336 463 282 280 c 0
 264 219 243 160 219 101 c 1
EndSplineSet
EndChar

StartChar: uni06AA
Encoding: 1706 1706 348
Width: 613
Flags: W
AnchorPoint: "rtl-above" 138 700 basechar 0
AnchorPoint: "rtl-below" 280 -82 basechar 0
LayerCount: 2
Fore
SplineSet
273 48 m 0
 321 48 359 55 390 70 c 0
 424 87 450 106 466 127 c 0
 483 151 492 174 492 198 c 0
 492 222 494 236 456 245 c 2
 137 321 l 2
 70 337 65 436 65 460 c 0
 65 484 70 503 78 516 c 0
 93 542 115 565 142 586 c 2
 349 748 l 1
 414 668 l 1
 412 658 410 655 404 650 c 0
 387 636 385 644 383 643 c 2
 217 508 l 2
 195 490 185 476 185 464 c 0
 185 445 191 419 209 415 c 2
 540 336 l 2
 606 320 606 240 606 201 c 0
 606 139 589 89 554 51 c 0
 526 20 489 -6 442 -28 c 0
 408 -43 353 -52 278 -52 c 0
 241 -52 204 -47 168 -36 c 0
 58 -3 5 60 3 154 c 0
 2 204 13 261 48 287 c 1
 130 242 l 1
 123 219 116 199 116 154 c 0
 116 115 143 85 199 62 c 0
 221 53 245 48 273 48 c 0
EndSplineSet
Substitution2: "Final forms-1" uni06AA.fina
Substitution2: "Medial forms-1" uni06AA.medi
Substitution2: "Initial forms-1" uni06AA.init
EndChar

StartChar: uni06AA.fina
Encoding: 65579 -1 349
Width: 613
Flags: W
AnchorPoint: "rtl-above" 66 700 basechar 0
AnchorPoint: "rtl-below" 208 -82 basechar 0
LayerCount: 2
Fore
SplineSet
201 48 m 0
 249 48 287 55 318 70 c 0
 352 87 378 106 394 127 c 0
 411 151 420 174 420 198 c 0
 420 222 422 236 384 245 c 2
 65 321 l 2
 -2 337 -7 436 -7 460 c 0
 -7 484 -2 503 6 516 c 0
 21 542 43 565 70 586 c 2
 277 748 l 1
 342 668 l 1
 340 658 338 655 332 650 c 0
 315 636 313 644 311 643 c 2
 145 508 l 2
 123 490 113 476 113 464 c 0
 113 445 119 419 137 415 c 2
 468 336 l 2
 498 329 514 308 523 285 c 2
 582 136 l 2
 591 113 603 101 617 101 c 2
 645 101 l 1
 645 0 l 1
 615 0 l 2
 584 0 560 3 544 8 c 0
 526 15 506 33 501 41 c 2
 490 60 l 1
 488 57 485 54 482 51 c 0
 454 20 417 -6 370 -28 c 0
 336 -43 281 -52 206 -52 c 0
 169 -52 132 -47 96 -36 c 0
 -14 -3 -67 60 -69 154 c 0
 -70 204 -59 261 -24 287 c 1
 58 242 l 1
 51 219 44 199 44 154 c 0
 44 115 71 85 127 62 c 0
 149 53 173 48 201 48 c 0
EndSplineSet
EndChar

StartChar: uni06AA.init
Encoding: 65580 -1 350
Width: 613
Flags: W
AnchorPoint: "rtl-above" 138 700 basechar 0
AnchorPoint: "rtl-below" 280 -82 basechar 0
LayerCount: 2
Fore
SplineSet
-12 0 m 1
 -12 101 l 1
 385 101 l 2
 435 101 468 117 482 150 c 0
 487 162 492 174 492 186 c 0
 492 210 494 236 456 245 c 2
 137 321 l 2
 70 337 65 436 65 460 c 0
 65 484 70 503 78 516 c 0
 93 542 115 565 142 586 c 2
 349 748 l 1
 414 668 l 1
 412 658 410 655 404 650 c 0
 387 636 385 644 383 643 c 2
 217 508 l 2
 195 490 185 476 185 464 c 0
 185 445 191 419 209 415 c 2
 540 336 l 2
 606 320 606 223 606 184 c 0
 606 147 595 112 575 78 c 0
 544 26 483 0 395 0 c 2
 -12 0 l 1
EndSplineSet
EndChar

StartChar: uni06AA.medi
Encoding: 65581 -1 351
Width: 613
Flags: W
AnchorPoint: "rtl-above" 66 700 basechar 0
AnchorPoint: "rtl-below" 208 -82 basechar 0
LayerCount: 2
Fore
SplineSet
-14 0 m 1
 -14 101 l 1
 316 101 l 2
 366 101 379 113 394 127 c 0
 416 147 420 174 420 198 c 0
 420 222 422 236 384 245 c 2
 65 321 l 2
 -2 337 -7 436 -7 460 c 0
 -7 484 -2 503 6 516 c 0
 21 542 43 565 70 586 c 2
 277 748 l 1
 342 668 l 1
 340 658 338 655 332 650 c 0
 315 636 313 644 311 643 c 2
 145 508 l 2
 123 490 113 476 113 464 c 0
 113 445 119 419 137 415 c 2
 468 336 l 2
 498 329 514 308 523 285 c 2
 582 136 l 2
 591 113 603 101 617 101 c 2
 645 101 l 1
 645 0 l 1
 615 0 l 2
 584 0 560 3 544 8 c 0
 526 15 506 33 501 41 c 2
 490 60 l 1
 488 57 485 54 482 51 c 0
 459 27 409 0 326 0 c 2
 -14 0 l 1
EndSplineSet
EndChar

StartChar: uni06D4
Encoding: 1748 1748 352
Width: 613
Flags: W
LayerCount: 2
Fore
SplineSet
180 0 m 1
 180 101 l 1
 433 101 l 1
 433 0 l 1
 180 0 l 1
EndSplineSet
EndChar

StartChar: uniFEE1.sindhi
Encoding: 65588 -1 409
Width: 613
Flags: W
AnchorPoint: "rtl-below" 346 -78 basechar 0
AnchorPoint: "rtl-above" 305 497 basechar 0
LayerCount: 2
Fore
SplineSet
310 148 m 1
 333 140 375 130 389 130 c 0
 404 130 416 133 422 141 c 0
 437 160 444 176 444 190 c 0
 444 200 443 207 441 212 c 0
 437 232 428 245 412 252 c 0
 400 258 385 262 370 262 c 0
 351 262 338 256 330 245 c 0
 313 224 305 206 305 189 c 0
 305 180 307 165 310 148 c 1
198 105 m 1
 191 122 191 163 191 206 c 0
 191 256 215 301 263 341 c 0
 288 362 322 373 365 373 c 0
 393 373 422 366 452 354 c 0
 513 328 549 286 558 229 c 0
 561 214 562 198 562 179 c 0
 562 126 544 87 507 62 c 0
 471 37 434 24 399 24 c 0
 372 24 345 27 318 34 c 1
 293 6 203 0 160 0 c 0
 99 0 57 6 36 18 c 0
 -4 40 -24 73 -24 118 c 0
 -24 137 -20 170 -7 184 c 1
 91 149 l 1
 90 144 90 141 90 131 c 0
 90 120 95 111 107 107 c 0
 119 102 131 100 144 101 c 0
 163 102 182 103 198 105 c 1
EndSplineSet
EndChar

StartChar: uniFEE2.sindhi
Encoding: 65589 -1 410
Width: 613
Flags: W
AnchorPoint: "rtl-below" 339 -135 basechar 0
AnchorPoint: "rtl-above" 291 456 basechar 0
LayerCount: 2
Fore
SplineSet
487 26 m 1
 482 21 477 18 473 15 c 0
 432 -10 396 -23 365 -23 c 0
 316 -23 270 -14 228 4 c 1
 202 1 178 0 160 0 c 0
 99 0 57 6 36 18 c 0
 -4 40 -24 73 -24 118 c 0
 -24 137 -20 170 -7 184 c 1
 91 149 l 1
 90 144 90 141 90 131 c 0
 90 120 95 111 107 107 c 0
 119 102 131 100 144 101 c 0
 149 101 155 102 160 102 c 1
 159 112 156 123 156 159 c 0
 156 209 180 254 228 293 c 0
 253 314 288 325 331 325 c 0
 359 325 387 318 417 306 c 0
 476 282 512 240 524 182 c 0
 527 169 532 152 541 129 c 0
 546 117 556 110 571 106 c 0
 583 103 596 101 609 101 c 2
 609 101 613 101 624 101 c 1
 624 0 l 1
 582 0 l 2
 530 0 498 9 487 26 c 1
275 100 m 1
 298 92 341 82 355 82 c 0
 370 82 382 87 388 94 c 0
 403 113 410 129 410 143 c 0
 410 153 409 161 407 165 c 0
 403 185 393 198 377 204 c 0
 365 210 351 214 336 214 c 0
 317 214 304 208 296 197 c 0
 279 175 270 157 270 141 c 0
 270 132 272 117 275 100 c 1
EndSplineSet
EndChar

StartChar: u10EFA.component
Encoding: 65592 -1 419
Width: 613
Flags: W
LayerCount: 2
Fore
SplineSet
431 -48 m 1
 537 -48 l 1
 537 -301 l 1
 431 -301 l 1
 431 -48 l 1
263 -48 m 1
 369 -48 l 1
 369 -301 l 1
 263 -301 l 1
 263 -48 l 1
EndSplineSet
Colour: ffff
EndChar

StartChar: uni2E41
Encoding: 11841 11841 435
Width: 613
Flags: W
LayerCount: 2
Fore
SplineSet
192 8 m 0
 192 76 238 122 290 122 c 0
 338 122 373 83 373 39 c 0
 373 -2 343 -20 333 -27 c 0
 322 -33 312 -39 312 -52 c 0
 312 -64 322 -79 328 -87 c 0
 348 -116 363 -129 397 -157 c 1
 332 -205 l 1
 230 -103 192 -65 192 8 c 0
EndSplineSet
EndChar

StartChar: uni204F
Encoding: 8271 8271 436
Width: 613
Flags: W
LayerCount: 2
Fore
SplineSet
208 418 m 0
 208 464 247 502 294 502 c 0
 341 502 379 464 379 418 c 0
 379 372 341 335 294 335 c 0
 247 335 208 372 208 418 c 0
199 8 m 0
 199 76 245 122 297 122 c 0
 345 122 380 83 380 39 c 0
 380 -2 350 -20 340 -27 c 0
 329 -33 319 -39 319 -52 c 0
 319 -64 329 -79 335 -87 c 0
 355 -116 370 -129 404 -157 c 1
 339 -205 l 1
 237 -103 199 -65 199 8 c 0
EndSplineSet
EndChar

StartChar: arabic_v_mark
Encoding: 65594 -1 449
Width: 613
GlyphClass: 1
Flags: W
AnchorPoint: "rtl-above" 306 600 mark 0
AnchorPoint: "Ligature rtl-above" 306 600 mark 0
LayerCount: 2
Fore
SplineSet
261 631 m 1
 164 794 l 1
 249 794 l 1
 306 705 l 1
 363 794 l 1
 449 794 l 1
 351 631 l 1
 261 631 l 1
EndSplineSet
EndChar

StartChar: arabic_yu_mark
Encoding: 65595 -1 450
Width: 613
GlyphClass: 1
Flags: W
LayerCount: 2
Fore
SplineSet
271 899 m 1
 339 899 l 1
 339 600 l 1
 271 600 l 1
 271 899 l 1
EndSplineSet
EndChar

StartChar: arabic_u_mark
Encoding: 65596 -1 451
Width: 613
GlyphClass: 1
Flags: W
LayerCount: 2
Fore
SplineSet
375 709 m 0
 375 654 346 625 270 549 c 1
 221 585 l 1
 247 606 258 616 273 638 c 0
 277 644 285 655 285 664 c 0
 285 674 277 679 269 683 c 0
 261 688 239 701 239 732 c 0
 239 765 266 794 302 794 c 0
 341 794 375 760 375 709 c 0
EndSplineSet
EndChar

StartChar: arabic_bar
Encoding: 65599 -1 464
Width: 613
Flags: W
LayerCount: 2
Fore
SplineSet
141 97 m 1
 473 97 l 1
 473 0 l 1
 141 0 l 1
 141 97 l 1
EndSplineSet
EndChar

StartChar: arabic_inv_v_mark
Encoding: 65600 -1 465
Width: 613
Flags: W
LayerCount: 2
Fore
SplineSet
261 794 m 1
 351 794 l 1
 449 631 l 1
 363 631 l 1
 306 720 l 1
 249 631 l 1
 164 631 l 1
 261 794 l 1
EndSplineSet
EndChar

